<svg width="10" height="10" viewBox="0 0 10 10" fill="none" xmlns="http://www.w3.org/2000/svg">
<path fill-rule="evenodd" clip-rule="evenodd" d="M4.82906 1.08754C5.05687 1.31535 5.05687 1.68469 4.82906 1.9125L2.32488 4.41669H9.08325C9.40542 4.41669 9.66659 4.67785 9.66659 5.00002C9.66659 5.32219 9.40542 5.58335 9.08325 5.58335H2.32488L4.82906 8.08754C5.05687 8.31535 5.05687 8.68469 4.82906 8.9125C4.60126 9.14031 4.23191 9.14031 4.00411 8.9125L0.504106 5.4125C0.39471 5.3031 0.333252 5.15473 0.333252 5.00002C0.333252 4.84531 0.39471 4.69694 0.504106 4.58754L4.00411 1.08754C4.23191 0.859736 4.60126 0.859736 4.82906 1.08754Z" fill="#626262"/>
</svg>
