<svg width="10" height="10" viewBox="0 0 10 10" fill="none" xmlns="http://www.w3.org/2000/svg">
<path fill-rule="evenodd" clip-rule="evenodd" d="M5.17081 1.08754C4.94301 1.31535 4.94301 1.68469 5.17081 1.9125L7.675 4.41669H0.916625C0.594459 4.41669 0.333292 4.67785 0.333292 5.00002C0.333292 5.32219 0.594459 5.58335 0.916625 5.58335H7.675L5.17081 8.08754C4.94301 8.31535 4.94301 8.68469 5.17081 8.9125C5.39862 9.14031 5.76797 9.14031 5.99577 8.9125L9.49577 5.4125C9.60517 5.3031 9.66663 5.15473 9.66663 5.00002C9.66663 4.84531 9.60517 4.69694 9.49577 4.58754L5.99577 1.08754C5.76797 0.859736 5.39862 0.859736 5.17081 1.08754Z" fill="#626262"/>
</svg>
