<svg width="29" height="29" viewBox="0 0 29 29" fill="none" xmlns="http://www.w3.org/2000/svg">
<path fill-rule="evenodd" clip-rule="evenodd" d="M14.1462 6.39557C14.6181 6.86745 14.6181 7.63253 14.1462 8.10441L8.959 13.2917H22.9585C23.6258 13.2917 24.1668 13.8326 24.1668 14.5C24.1668 15.1673 23.6258 15.7083 22.9585 15.7083H8.959L14.1462 20.8956C14.6181 21.3675 14.6181 22.1325 14.1462 22.6044C13.6744 23.0763 12.9093 23.0763 12.4374 22.6044L5.18741 15.3544C4.9608 15.1278 4.8335 14.8205 4.8335 14.5C4.8335 14.1795 4.9608 13.8722 5.18741 13.6456L12.4374 6.39557C12.9093 5.92369 13.6744 5.92369 14.1462 6.39557Z" fill="#626262"/>
</svg>
