<svg width="29" height="29" viewBox="0 0 29 29" fill="none" xmlns="http://www.w3.org/2000/svg">
<path fill-rule="evenodd" clip-rule="evenodd" d="M14.8538 6.39557C14.3819 6.86745 14.3819 7.63253 14.8538 8.10441L20.041 13.2917H6.04151C5.37416 13.2917 4.83317 13.8326 4.83317 14.5C4.83317 15.1673 5.37416 15.7083 6.04151 15.7083H20.041L14.8538 20.8956C14.3819 21.3675 14.3819 22.1325 14.8538 22.6044C15.3256 23.0763 16.0907 23.0763 16.5626 22.6044L23.8126 15.3544C24.0392 15.1278 24.1665 14.8205 24.1665 14.5C24.1665 14.1795 24.0392 13.8722 23.8126 13.6456L16.5626 6.39557C16.0907 5.92369 15.3256 5.92369 14.8538 6.39557Z" fill="#626262"/>
</svg>
