<svg width="181" height="49" viewBox="0 0 181 49" fill="none" xmlns="http://www.w3.org/2000/svg">
<path d="M7.76852 6.70585L1.56035 39.7058C0.749688 44.0149 4.05498 48 8.43967 48H164.85C168.126 48 170.963 45.7286 171.68 42.5326L179.085 9.53268C180.067 5.15731 176.739 1.00004 172.255 1.00004H14.6478C11.2809 1.00004 8.39101 3.39698 7.76852 6.70585Z" fill="#232323" stroke="#4F70F7" stroke-width="2"/>
<path d="M30.718 18.488V37H28.274V28.342H18.498V37H16.054V18.488H18.498V26.21H28.274V18.488H30.718ZM46.3097 35.232V36.948C45.859 37.1213 45.3563 37.208 44.8017 37.208C43.5363 37.208 42.8863 36.5493 42.8517 35.232C41.5863 36.6533 39.9657 37.364 37.9897 37.364C36.6723 37.364 35.6237 37.026 34.8437 36.35C34.081 35.674 33.6997 34.7467 33.6997 33.568C33.6997 31.176 35.2857 29.7807 38.4577 29.382C38.6657 29.3473 38.969 29.3127 39.3677 29.278C40.8757 29.1047 41.803 28.9053 42.1497 28.68C42.5483 28.4027 42.7477 27.926 42.7477 27.25C42.7477 25.7767 41.7337 25.04 39.7057 25.04C38.6657 25.04 37.877 25.2567 37.3397 25.69C36.8023 26.106 36.4817 26.7993 36.3777 27.77H34.2197C34.2543 26.3313 34.7657 25.2133 35.7537 24.416C36.7417 23.6187 38.1023 23.22 39.8357 23.22C41.725 23.22 43.129 23.6533 44.0477 24.52C44.3423 24.7973 44.559 25.1613 44.6977 25.612C44.8363 26.0627 44.9143 26.4353 44.9317 26.73C44.949 27.0073 44.9577 27.432 44.9577 28.004C44.9577 28.6627 44.9403 29.6593 44.9057 30.994C44.871 32.3287 44.8537 33.3253 44.8537 33.984C44.8537 34.4693 44.9143 34.816 45.0357 35.024C45.1743 35.2147 45.417 35.31 45.7637 35.31C45.9023 35.31 46.0843 35.284 46.3097 35.232ZM42.7477 30.032C42.5917 30.1533 42.427 30.2573 42.2537 30.344C42.0803 30.4307 41.855 30.5 41.5777 30.552C41.3177 30.604 41.1357 30.6473 41.0317 30.682C40.945 30.6993 40.7197 30.734 40.3557 30.786C39.9917 30.8207 39.801 30.838 39.7837 30.838C39.2463 30.9073 38.891 30.9593 38.7177 30.994C38.5617 31.0113 38.2497 31.0807 37.7817 31.202C37.331 31.3233 37.0103 31.462 36.8197 31.618C36.629 31.774 36.4383 32.008 36.2477 32.32C36.0743 32.6147 35.9877 32.97 35.9877 33.386C35.9877 34.0793 36.2217 34.6253 36.6897 35.024C37.175 35.4227 37.8337 35.622 38.6657 35.622C39.723 35.622 40.6677 35.31 41.4997 34.686C42.3317 34.062 42.7477 33.3253 42.7477 32.476V30.032ZM59.9365 32.112C59.7458 33.724 59.1305 35.0067 58.0905 35.96C57.0678 36.9133 55.7332 37.39 54.0865 37.39C52.0585 37.39 50.4898 36.766 49.3805 35.518C48.2712 34.2527 47.7165 32.5713 47.7165 30.474C47.7165 28.238 48.2972 26.47 49.4585 25.17C50.6198 23.8527 52.1885 23.194 54.1645 23.194C55.8112 23.194 57.1285 23.61 58.1165 24.442C59.1045 25.2567 59.6852 26.4267 59.8585 27.952H57.5705C57.1718 26.0107 56.0452 25.04 54.1905 25.04C52.9078 25.04 51.8938 25.5167 51.1485 26.47C50.4032 27.406 50.0305 28.68 50.0305 30.292C50.0305 31.9213 50.3858 33.204 51.0965 34.14C51.8072 35.076 52.7865 35.544 54.0345 35.544C55.0398 35.544 55.8545 35.2493 56.4785 34.66C57.1198 34.0707 57.5272 33.2213 57.7005 32.112H59.9365ZM63.4234 25.118C64.602 23.8353 66.2054 23.194 68.2334 23.194C70.2614 23.194 71.8387 23.8093 72.9654 25.04C74.092 26.2707 74.6554 27.9953 74.6554 30.214C74.6554 32.4847 74.092 34.2527 72.9654 35.518C71.8387 36.7833 70.2527 37.416 68.2074 37.416C66.162 37.416 64.5587 36.792 63.3974 35.544C62.236 34.296 61.6554 32.5627 61.6554 30.344C61.6554 28.1427 62.2447 26.4007 63.4234 25.118ZM71.2494 26.47C70.504 25.5167 69.4814 25.04 68.1814 25.04C66.8814 25.04 65.85 25.5167 65.0874 26.47C64.3247 27.4233 63.9434 28.6973 63.9434 30.292C63.9434 31.9387 64.316 33.23 65.0614 34.166C65.824 35.0847 66.8814 35.544 68.2334 35.544C69.5334 35.544 70.5474 35.076 71.2754 34.14C72.0207 33.204 72.3934 31.9127 72.3934 30.266C72.3934 28.6713 72.012 27.406 71.2494 26.47ZM88.831 32.112C88.6404 33.724 88.025 35.0067 86.985 35.96C85.9624 36.9133 84.6277 37.39 82.981 37.39C80.953 37.39 79.3844 36.766 78.275 35.518C77.1657 34.2527 76.611 32.5713 76.611 30.474C76.611 28.238 77.1917 26.47 78.353 25.17C79.5144 23.8527 81.083 23.194 83.059 23.194C84.7057 23.194 86.023 23.61 87.011 24.442C87.999 25.2567 88.5797 26.4267 88.753 27.952H86.465C86.0664 26.0107 84.9397 25.04 83.085 25.04C81.8024 25.04 80.7884 25.5167 80.043 26.47C79.2977 27.406 78.925 28.68 78.925 30.292C78.925 31.9213 79.2804 33.204 79.991 34.14C80.7017 35.076 81.681 35.544 82.929 35.544C83.9344 35.544 84.749 35.2493 85.373 34.66C86.0144 34.0707 86.4217 33.2213 86.595 32.112H88.831Z" fill="white"/>
<path d="M125.779 11.368L120.415 37H115.915L118.327 25.516H106.375L103.927 37H99.4274L104.863 11.368H109.327L107.167 21.7H119.155L121.315 11.368H125.779ZM125.48 37L130.916 11.368H135.416L130.772 33.256H140.708L145.352 11.368H149.852L145.208 33.256H155.144L159.788 11.368H164.288L158.852 37H125.48Z" fill="#4F70F7"/>
</svg>
