<?xml version="1.0" encoding="UTF-8"?>
<svg id="Layer_1" data-name="Layer 1" xmlns="http://www.w3.org/2000/svg" xmlns:xlink="http://www.w3.org/1999/xlink" viewBox="0 0 1000 1000">
  <defs>
    <style>
      .cls-1 {
        fill: url(#linear-gradient-12);
      }

      .cls-1, .cls-2, .cls-3, .cls-4, .cls-5, .cls-6, .cls-7, .cls-8, .cls-9, .cls-10, .cls-11, .cls-12, .cls-13, .cls-14, .cls-15, .cls-16, .cls-17, .cls-18, .cls-19, .cls-20, .cls-21, .cls-22, .cls-23, .cls-24, .cls-25, .cls-26, .cls-27, .cls-28, .cls-29, .cls-30, .cls-31, .cls-32, .cls-33, .cls-34, .cls-35, .cls-36, .cls-37, .cls-38, .cls-39, .cls-40, .cls-41, .cls-42, .cls-43, .cls-44, .cls-45, .cls-46 {
        stroke-width: 0px;
      }

      .cls-2 {
        fill: url(#linear-gradient-17);
      }

      .cls-3 {
        fill: url(#linear-gradient-19);
      }

      .cls-4 {
        fill: url(#linear-gradient-33);
      }

      .cls-47 {
        fill: none;
        opacity: .75;
        stroke: #232323;
        stroke-linecap: round;
        stroke-linejoin: round;
        stroke-width: 6.21px;
      }

      .cls-5 {
        fill: url(#linear-gradient-21);
      }

      .cls-6 {
        fill: url(#linear-gradient-6);
      }

      .cls-7 {
        fill: url(#linear-gradient-38);
      }

      .cls-7, .cls-18 {
        opacity: .7;
      }

      .cls-48 {
        clip-path: url(#clippath-2);
      }

      .cls-8 {
        fill: url(#linear-gradient-42);
      }

      .cls-9 {
        fill: url(#linear-gradient-15);
      }

      .cls-10 {
        fill: url(#linear-gradient-11);
      }

      .cls-11 {
        fill: url(#linear-gradient-5);
      }

      .cls-12 {
        fill: url(#linear-gradient-31);
      }

      .cls-13 {
        fill: url(#linear-gradient-34);
      }

      .cls-49 {
        clip-path: url(#clippath-1);
      }

      .cls-14 {
        fill: url(#linear-gradient-41);
      }

      .cls-15 {
        fill: url(#linear-gradient-40);
      }

      .cls-16 {
        fill: url(#linear-gradient-13);
      }

      .cls-17 {
        fill: url(#linear-gradient-23);
      }

      .cls-18 {
        fill: url(#linear-gradient-39);
      }

      .cls-19 {
        fill: url(#linear-gradient-25);
      }

      .cls-20 {
        fill: url(#linear-gradient-43);
      }

      .cls-21 {
        fill: url(#linear-gradient-16);
      }

      .cls-22 {
        fill: url(#linear-gradient-22);
      }

      .cls-23 {
        fill: url(#linear-gradient-35);
      }

      .cls-24 {
        fill: url(#linear-gradient-32);
      }

      .cls-25 {
        fill: url(#linear-gradient-20);
      }

      .cls-26 {
        fill: url(#linear-gradient-14);
      }

      .cls-27 {
        fill: url(#linear-gradient-2);
      }

      .cls-28 {
        fill: url(#linear-gradient-7);
      }

      .cls-29 {
        fill: url(#linear-gradient-3);
      }

      .cls-50 {
        fill: url(#linear-gradient-45);
      }

      .cls-30 {
        fill: url(#linear-gradient-9);
      }

      .cls-31 {
        fill: url(#linear-gradient-27);
      }

      .cls-32 {
        fill: url(#linear-gradient-36);
      }

      .cls-33 {
        fill: url(#linear-gradient-48);
      }

      .cls-34 {
        fill: url(#linear-gradient-49);
      }

      .cls-35 {
        fill: url(#linear-gradient-8);
      }

      .cls-36 {
        fill: url(#linear-gradient-47);
      }

      .cls-37 {
        fill: url(#linear-gradient-26);
      }

      .cls-51 {
        fill: url(#linear-gradient-24);
      }

      .cls-38 {
        fill: url(#linear-gradient-18);
      }

      .cls-39 {
        fill: url(#linear-gradient-30);
      }

      .cls-40 {
        fill: url(#linear-gradient-44);
      }

      .cls-41 {
        fill: url(#linear-gradient-29);
      }

      .cls-42 {
        fill: url(#linear-gradient-46);
      }

      .cls-52 {
        fill: url(#linear-gradient);
      }

      .cls-43 {
        fill: url(#linear-gradient-28);
      }

      .cls-44 {
        fill: url(#linear-gradient-10);
      }

      .cls-45 {
        fill: url(#linear-gradient-4);
      }

      .cls-46 {
        fill: url(#linear-gradient-37);
      }
    </style>
    <linearGradient id="linear-gradient" x1="723.96" y1="250.92" x2="888.57" y2="250.92" gradientUnits="userSpaceOnUse">
      <stop offset="0" stop-color="#454345"/>
      <stop offset=".55" stop-color="#6e6f71"/>
      <stop offset="1" stop-color="#979899"/>
    </linearGradient>
    <linearGradient id="linear-gradient-2" x1="627.29" y1="234.34" x2="869.18" y2="275.82" gradientUnits="userSpaceOnUse">
      <stop offset=".03" stop-color="#f3f4f4"/>
      <stop offset=".24" stop-color="#cccecf"/>
      <stop offset=".43" stop-color="#b1b3b5"/>
      <stop offset=".54" stop-color="#a7a9ac"/>
      <stop offset="1" stop-color="#d1d3d4"/>
    </linearGradient>
    <linearGradient id="linear-gradient-3" x1="668.28" y1="250.92" x2="802.83" y2="250.92" gradientUnits="userSpaceOnUse">
      <stop offset="0" stop-color="#656165"/>
      <stop offset=".15" stop-color="#6a666a"/>
      <stop offset=".34" stop-color="#797679"/>
      <stop offset=".55" stop-color="#919092"/>
      <stop offset=".78" stop-color="#b3b3b5"/>
      <stop offset=".97" stop-color="#d7d9d9"/>
    </linearGradient>
    <linearGradient id="linear-gradient-4" x1="627.33" y1="243.77" x2="927.95" y2="261.65" gradientUnits="userSpaceOnUse">
      <stop offset=".03" stop-color="#f3f4f4"/>
      <stop offset=".12" stop-color="#e4e5e5"/>
      <stop offset=".28" stop-color="#bfbec0"/>
      <stop offset=".51" stop-color="#847f84"/>
      <stop offset=".53" stop-color="#807b80"/>
      <stop offset=".74" stop-color="#a7a9ac"/>
      <stop offset="1" stop-color="#d1d3d4"/>
    </linearGradient>
    <linearGradient id="linear-gradient-5" x1="742.18" y1="309.43" x2="779.41" y2="309.43" gradientUnits="userSpaceOnUse">
      <stop offset=".33" stop-color="#454345"/>
      <stop offset="1" stop-color="#6d6f71"/>
    </linearGradient>
    <linearGradient id="linear-gradient-6" y1="191.71" y2="191.71" xlink:href="#linear-gradient-5"/>
    <linearGradient id="linear-gradient-7" x1="712.95" y1="105.97" x2="734.73" y2="105.97" xlink:href="#linear-gradient-5"/>
    <linearGradient id="linear-gradient-8" x1="712.95" y1="395.86" x2="734.73" y2="395.86" xlink:href="#linear-gradient-5"/>
    <linearGradient id="linear-gradient-9" x1="640.5" y1="162.76" x2="662.28" y2="162.76" xlink:href="#linear-gradient-5"/>
    <linearGradient id="linear-gradient-10" x1="640.5" y1="339.08" x2="662.28" y2="339.08" xlink:href="#linear-gradient-5"/>
    <linearGradient id="linear-gradient-11" x1="785.39" y1="339.08" x2="807.17" y2="339.08" xlink:href="#linear-gradient-5"/>
    <linearGradient id="linear-gradient-12" x1="636.36" y1="250.92" x2="658.14" y2="250.92" xlink:href="#linear-gradient-5"/>
    <linearGradient id="linear-gradient-13" x1="788.71" y1="250.92" x2="810.5" y2="250.92" xlink:href="#linear-gradient-5"/>
    <linearGradient id="linear-gradient-14" x1="785.39" y1="162.76" x2="807.17" y2="162.76" xlink:href="#linear-gradient-5"/>
    <linearGradient id="linear-gradient-15" x1="786.67" y1="268.89" x2="976.55" y2="235.81" gradientUnits="userSpaceOnUse">
      <stop offset=".03" stop-color="#f3f4f4"/>
      <stop offset=".36" stop-color="#cccecf"/>
      <stop offset=".66" stop-color="#b1b3b5"/>
      <stop offset=".83" stop-color="#a7a9ac"/>
      <stop offset="1" stop-color="#d1d3d4"/>
    </linearGradient>
    <linearGradient id="linear-gradient-16" x1="817.63" y1="268.06" x2="935.03" y2="240.54" gradientUnits="userSpaceOnUse">
      <stop offset=".03" stop-color="#d7d9d9"/>
      <stop offset=".12" stop-color="#b3b3b5"/>
      <stop offset=".22" stop-color="#919092"/>
      <stop offset=".32" stop-color="#797679"/>
      <stop offset=".41" stop-color="#6a666a"/>
      <stop offset=".48" stop-color="#656165"/>
      <stop offset=".78" stop-color="#8c8e91"/>
      <stop offset="1" stop-color="#b6b7b9"/>
    </linearGradient>
    <linearGradient id="linear-gradient-17" x1="865.82" y1="255.9" x2="890.96" y2="255.9" gradientUnits="userSpaceOnUse">
      <stop offset=".33" stop-color="#3e3c3e"/>
      <stop offset="1" stop-color="#66686a"/>
    </linearGradient>
    <linearGradient id="linear-gradient-18" x1="852.98" y1="210.67" x2="859.88" y2="210.67" xlink:href="#linear-gradient-5"/>
    <linearGradient id="linear-gradient-19" x1="893.91" y1="210.67" x2="900.8" y2="210.67" xlink:href="#linear-gradient-5"/>
    <linearGradient id="linear-gradient-20" x1="893.91" y1="297.14" x2="900.8" y2="297.14" xlink:href="#linear-gradient-5"/>
    <linearGradient id="linear-gradient-21" x1="852.98" y1="297.14" x2="859.88" y2="297.14" xlink:href="#linear-gradient-5"/>
    <linearGradient id="linear-gradient-22" x1="529.47" y1="158.35" x2="528.71" y2="221.61" xlink:href="#linear-gradient-2"/>
    <linearGradient id="linear-gradient-23" x1="446.84" y1="164.5" x2="537.2" y2="243.92" gradientUnits="userSpaceOnUse">
      <stop offset="0" stop-color="#5a575a"/>
      <stop offset=".78" stop-color="#828386"/>
      <stop offset="1" stop-color="#acadae"/>
    </linearGradient>
    <linearGradient id="linear-gradient-24" x1="426.42" y1="173.96" x2="551.96" y2="226.11" xlink:href="#linear-gradient-2"/>
    <linearGradient id="linear-gradient-25" x1="426.42" y1="173.96" x2="551.96" y2="226.11" xlink:href="#linear-gradient-2"/>
    <clipPath id="clippath-1">
      <path class="cls-19" d="m423.98,219.85l-4,8.42c1.54,1.74,3.19,3.38,4.92,4.92l17.89-8.51c3.32,1.98,6.95,3.5,10.8,4.48l6.64,18.66c1.15.07,2.31.11,3.48.11s2.33-.04,3.48-.11l6.64-18.66c3.85-.98,7.47-2.5,10.8-4.48l17.89,8.51c1.74-1.54,3.38-3.19,4.92-4.92l-4-8.42-4.5-9.48c1.98-3.32,3.5-6.95,4.48-10.8l18.66-6.64c.07-1.15.11-2.31.11-3.48s-.04-2.33-.11-3.48l-18.66-6.64c-.98-3.85-2.5-7.47-4.48-10.8l4.5-9.48,4-8.42c-1.54-1.74-3.19-3.38-4.92-4.92l-17.89,8.51c-3.32-1.98-6.95-3.5-10.8-4.48l-6.64-18.66c-1.15-.07-2.31-.11-3.48-.11s-2.33.04-3.48.11l-6.64,18.66c-3.85.98-7.47,2.5-10.8,4.48l-17.89-8.51c-1.74,1.54-3.38,3.19-4.92,4.92l4,8.42v60.78Z"/>
    </clipPath>
    <linearGradient id="linear-gradient-26" x1="441.26" y1="156.24" x2="441.26" y2="222.62" gradientUnits="userSpaceOnUse">
      <stop offset="0" stop-color="#434143"/>
      <stop offset=".78" stop-color="#6c6d6f"/>
      <stop offset="1" stop-color="#969697"/>
    </linearGradient>
    <linearGradient id="linear-gradient-27" x1="439.26" y1="156.24" x2="439.26" y2="222.62" xlink:href="#linear-gradient-2"/>
    <linearGradient id="linear-gradient-28" x1="343.14" y1="164.12" x2="431.83" y2="211.71" gradientUnits="userSpaceOnUse">
      <stop offset="0" stop-color="#5a575a"/>
      <stop offset=".65" stop-color="#828386"/>
      <stop offset="1" stop-color="#acadae"/>
    </linearGradient>
    <linearGradient id="linear-gradient-29" x1="368.49" y1="189.45" x2="412.22" y2="189.45" gradientUnits="userSpaceOnUse">
      <stop offset=".33" stop-color="#3c3a3c"/>
      <stop offset="1" stop-color="#646668"/>
    </linearGradient>
    <linearGradient id="linear-gradient-30" x1="412.34" y1="316.44" x2="412.34" y2="382.79" xlink:href="#linear-gradient-2"/>
    <linearGradient id="linear-gradient-31" x1="300.64" y1="311.56" x2="478.12" y2="425.75" gradientUnits="userSpaceOnUse">
      <stop offset="0" stop-color="#5a575a"/>
      <stop offset=".74" stop-color="#828386"/>
      <stop offset="1" stop-color="#acadae"/>
    </linearGradient>
    <linearGradient id="linear-gradient-32" x1="303.41" y1="348.88" x2="405.61" y2="348.88" xlink:href="#linear-gradient-2"/>
    <linearGradient id="linear-gradient-33" x1="310.57" y1="317.05" x2="310.57" y2="381.56" xlink:href="#linear-gradient-2"/>
    <linearGradient id="linear-gradient-34" x1="219.17" y1="348.88" x2="279.95" y2="348.88" gradientUnits="userSpaceOnUse">
      <stop offset="0" stop-color="#969697"/>
      <stop offset=".22" stop-color="#6c6d6f"/>
      <stop offset="1" stop-color="#434143"/>
    </linearGradient>
    <linearGradient id="linear-gradient-35" x1="208.89" y1="319.34" x2="208.89" y2="378.99" xlink:href="#linear-gradient-2"/>
    <linearGradient id="linear-gradient-36" x1="83.99" y1="338.94" x2="180.6" y2="355.52" gradientUnits="userSpaceOnUse">
      <stop offset="0" stop-color="#5a575a"/>
      <stop offset=".45" stop-color="#828386"/>
      <stop offset="1" stop-color="#acadae"/>
    </linearGradient>
    <linearGradient id="linear-gradient-37" x1="128.07" y1="348.81" x2="154.91" y2="348.81" xlink:href="#linear-gradient-29"/>
    <linearGradient id="linear-gradient-38" x1="163.15" y1="335.41" x2="194.7" y2="335.41" xlink:href="#linear-gradient-28"/>
    <linearGradient id="linear-gradient-39" x1="163.15" y1="362.23" x2="194.7" y2="362.23" xlink:href="#linear-gradient-28"/>
    <linearGradient id="linear-gradient-40" x1="157.19" y1="579.67" x2="262.74" y2="579.67" gradientUnits="userSpaceOnUse">
      <stop offset="0" stop-color="#6b676b"/>
      <stop offset=".74" stop-color="#929397"/>
      <stop offset="1" stop-color="#bcbebf"/>
    </linearGradient>
    <linearGradient id="linear-gradient-41" x1="73.43" y1="496.45" x2="218.34" y2="640.45" xlink:href="#linear-gradient-2"/>
    <linearGradient id="linear-gradient-42" x1="123.23" y1="637.75" x2="174.41" y2="637.75" xlink:href="#linear-gradient-31"/>
    <linearGradient id="linear-gradient-43" x1="123.23" y1="518.87" x2="174.41" y2="518.87" xlink:href="#linear-gradient-31"/>
    <linearGradient id="linear-gradient-44" x1="276.36" y1="513.31" x2="801.91" y2="956.32" gradientUnits="userSpaceOnUse">
      <stop offset=".03" stop-color="#bfc0c0"/>
      <stop offset=".12" stop-color="#9c9b9c"/>
      <stop offset=".22" stop-color="#797879"/>
      <stop offset=".32" stop-color="#605e60"/>
      <stop offset=".41" stop-color="#514e51"/>
      <stop offset=".48" stop-color="#4c494c"/>
      <stop offset=".78" stop-color="#757678"/>
      <stop offset="1" stop-color="#9e9fa0"/>
    </linearGradient>
    <linearGradient id="linear-gradient-45" x1="310.77" y1="497.6" x2="883.1" y2="1069.93" xlink:href="#linear-gradient-4"/>
    <linearGradient id="linear-gradient-46" x1="310.77" y1="497.6" x2="883.1" y2="1069.93" xlink:href="#linear-gradient-4"/>
    <clipPath id="clippath-2">
      <path class="cls-42" d="m681.18,638.6c1.89-9.51-27.52-9.34-27.52-19.41,0-7.96,29.79-25.78,28.6-33.39.39-.32.61-.49.61-.49,0,0-.24,0-.7-.02-.35-2.2-.75-4.38-1.19-6.54-14.07-68.48-74.69-119.99-147.34-119.99s-136.89,54.64-148.48,126.19c-1.28,7.89-1.94,15.98-1.94,24.23,0,6.42.4,12.74,1.18,18.94l-4.15,3.62-26.06,16.38v197.49l26.06,4.07,7.2,25.21-3.26,20.16,118.27,13.57,25.52,9.83,31.64-6.25,109.79-17.15s-10.65-22.2,3.63-35.57c14.29-13.37,28.58-13.87,28.58-13.87v-202.24s-10.63-.8-20.45-4.77Zm-153.26,248.88c-9.28,0-16.81-7.52-16.81-16.8s7.53-16.8,16.81-16.8,16.8,7.52,16.8,16.8-7.53,16.8-16.8,16.8Zm-68.85-143.49c0-37.47,30.49-67.96,67.95-67.96s68.85,30.49,68.85,67.96-31.85,67.82-69.22,67.94c-37.29-.2-67.58-30.6-67.58-67.94Zm192.58-51.38c-9.27,0-16.8-7.53-16.8-16.81s7.53-16.8,16.8-16.8,16.8,7.53,16.8,16.8-7.52,16.81-16.8,16.81Zm-248.36-33.6c9.27,0,16.8,7.53,16.8,16.8s-7.53,16.81-16.8,16.81-16.8-7.53-16.8-16.81,7.52-16.8,16.8-16.8Zm14.52,159.05c-9.28,0-16.8-7.52-16.8-16.8s7.52-16.8,16.8-16.8,16.8,7.52,16.8,16.8-7.52,16.8-16.8,16.8Zm219.32-33.59c9.28,0,16.8,7.52,16.8,16.8s-7.52,16.8-16.8,16.8-16.8-7.52-16.8-16.8,7.52-16.8,16.8-16.8Zm3.66-250.35c9.28,0,16.81,7.52,16.81,16.8s-7.53,16.8-16.81,16.8-16.8-7.52-16.8-16.8,7.53-16.8,16.8-16.8Zm-107.93-70.59c9.28,0,16.81,7.53,16.81,16.8s-7.53,16.81-16.81,16.81-16.8-7.53-16.8-16.81,7.53-16.8,16.8-16.8Zm-110.18,70.59c9.28,0,16.8,7.52,16.8,16.8s-7.52,16.8-16.8,16.8-16.8-7.52-16.8-16.8,7.52-16.8,16.8-16.8Z"/>
    </clipPath>
    <linearGradient id="linear-gradient-47" x1="330.1" y1="570.86" x2="779.99" y2="972.59" gradientUnits="userSpaceOnUse">
      <stop offset=".03" stop-color="#c3c4c4"/>
      <stop offset=".12" stop-color="#b4b5b5"/>
      <stop offset=".29" stop-color="#8f8e8f"/>
      <stop offset=".52" stop-color="#524f52"/>
      <stop offset=".53" stop-color="#504d50"/>
      <stop offset=".74" stop-color="#787a7c"/>
      <stop offset="1" stop-color="#a2a3a4"/>
    </linearGradient>
    <linearGradient id="linear-gradient-48" x1="325.1" y1="563.86" x2="774.99" y2="965.59" gradientUnits="userSpaceOnUse">
      <stop offset="0" stop-color="#dad8da"/>
      <stop offset=".06" stop-color="#f6f7f7"/>
      <stop offset=".07" stop-color="#feffff"/>
      <stop offset=".17" stop-color="#f0f0f1"/>
      <stop offset=".36" stop-color="#ccc9cc"/>
      <stop offset=".53" stop-color="#a9a3a9"/>
      <stop offset=".74" stop-color="#c4c6ca"/>
      <stop offset="1" stop-color="#e4e6e7"/>
    </linearGradient>
    <linearGradient id="linear-gradient-49" x1="433.54" y1="662.43" x2="566.54" y2="789.92" gradientUnits="userSpaceOnUse">
      <stop offset=".03" stop-color="#a8a9a9"/>
      <stop offset=".12" stop-color="#999a9a"/>
      <stop offset=".29" stop-color="#737374"/>
      <stop offset=".52" stop-color="#363436"/>
      <stop offset=".53" stop-color="#353335"/>
      <stop offset=".74" stop-color="#5e5f61"/>
      <stop offset="1" stop-color="#878889"/>
    </linearGradient>
  </defs>
  <g>
    <path class="cls-52" d="m723.96,426.8h58.25c58.73,0,106.35-47.61,106.35-106.35v-139.06c0-58.73-47.61-106.35-106.35-106.35h-58.25v351.76Z"/>
    <path class="cls-27" d="m723.96,426.8c52.04,0,94.74-37.55,99.14-85.42.45-4.88-.33-9.8-2.28-14.34l-10.89-25.31c-4.9-11.39-2.24-24.4,6.75-33.31,4.54-4.5,7.19-10.71,6.75-17.5.44-6.79-2.2-13-6.75-17.5-8.99-8.91-11.65-21.92-6.75-33.31l10.89-25.31c1.95-4.54,2.73-9.46,2.28-14.34-4.4-47.86-47.11-85.42-99.14-85.42s-94.74,37.55-99.14,85.42c-.45,4.88.33,9.8,2.28,14.34l10.89,25.31c4.9,11.39,2.24,24.4-6.75,33.31-4.54,4.5-7.19,10.71-6.75,17.5-.44,6.79,2.2,13,6.75,17.5,8.99,8.91,11.65,21.92,6.75,33.31l-10.89,25.31c-1.95,4.54-2.73,9.46-2.28,14.34,4.4,47.86,47.11,85.42,99.14,85.42Z"/>
    <path class="cls-29" d="m779.41,310.6c0,22.23-13.06,41.42-31.92,50.29-7.17,3.38-15.19,5.28-23.65,5.28-30.69,0-55.57-24.88-55.57-55.57,0-16.3,7.02-30.98,18.21-41.14v-37.09c-11.2-10.16-18.21-24.83-18.21-41.14,0-30.68,24.88-55.57,55.57-55.57,8.46,0,16.48,1.89,23.65,5.28,18.86,8.88,31.92,28.07,31.92,50.29,0,16.32-7.03,30.98-18.21,41.15v37.07c11.19,10.17,18.21,24.84,18.21,41.15Z"/>
    <path class="cls-45" d="m770.54,280.48c5.61,8.67,8.87,19.01,8.87,30.12,0,10.1-2.7,19.58-7.42,27.75-5.65,9.8-14.21,17.71-24.5,22.54-18.87-8.87-31.93-28.06-31.93-50.29,0-16.3,7.03-30.98,18.21-41.14v-37.09c-11.19-10.16-18.21-24.83-18.21-41.14,0-22.22,13.06-41.42,31.93-50.29,10.03,4.72,18.42,12.37,24.07,21.83,4.98,8.32,7.84,18.06,7.84,28.46s-3.08,20.9-8.42,29.43c-2.72,4.35-6.02,8.28-9.79,11.72v37.07c3.57,3.25,6.72,6.95,9.35,11.03Z"/>
    <path class="cls-11" d="m779.41,310.6c0,10.1-2.7,19.58-7.42,27.75-.28.02-.57.02-.86.02-15.99,0-28.95-12.97-28.95-28.96s12.64-28.63,28.36-28.93c5.61,8.67,8.87,19.01,8.87,30.12Z"/>
    <path class="cls-6" d="m779.41,191.23c0,10.82-3.08,20.9-8.42,29.43-15.93-.08-28.8-13.02-28.8-28.96s12.96-28.95,28.95-28.95c.15,0,.29,0,.43.01,4.98,8.32,7.84,18.06,7.84,28.46Z"/>
    <circle class="cls-28" cx="723.84" cy="105.97" r="10.89"/>
    <circle class="cls-35" cx="723.84" cy="395.86" r="10.89"/>
    <circle class="cls-30" cx="651.39" cy="162.76" r="10.89"/>
    <circle class="cls-44" cx="651.39" cy="339.08" r="10.89"/>
    <circle class="cls-10" cx="796.28" cy="339.08" r="10.89"/>
    <circle class="cls-1" cx="647.25" cy="250.92" r="10.89"/>
    <circle class="cls-16" cx="799.61" cy="250.92" r="10.89"/>
    <circle class="cls-26" cx="796.28" cy="162.76" r="10.89"/>
    <g>
      <path class="cls-9" d="m893.91,305.13l-.87-.7c1.29-5.67.84-12.65-1.38-17.34l-5.12-10.8c1.46-6.13,2.29-13.05,2.29-20.38,0-8.25-1.05-15.98-2.87-22.65l3.95-8.33,3.87-3.64,3.58-26.09-9.97.11h0c-2.12-.51-4.33.93-5.95,4.36l-5.16,10.89h-7.61c-.46-.06-.92-.11-1.39-.11-1.61,0-3.17.39-4.67,1.09l-4.86-16.24h-11.82c-.54-.13-1.09-.13-1.64,0h-.03s0,0,0,0c-1.56.39-3.07,1.83-4.27,4.35-2.82,5.96-2.82,15.61,0,21.57l7.62,16.08c-1.21,5.68-1.89,11.97-1.89,18.6,0,5.68.5,11.12,1.4,16.13l-7.14,15.05c-2.82,5.96-2.82,15.61,0,21.57,1.14,2.4,2.56,3.81,4.03,4.28v.19h12.2c5.26-3.4-.43-10.23-2.31-12.26l2.63-5.55c3.16,3.84,6.83,6.05,10.74,6.05h10.71l3.45,7.29c1.41,2.98,3.26,4.47,5.11,4.47h11.12l-3.76-8Z"/>
      <path class="cls-21" d="m897.66,276.28c1.46-6.13,2.29-13.05,2.29-20.38,0-8.25-1.05-15.98-2.87-22.65l5.7-12.03c2.82-5.96,2.82-15.61,0-21.57-2.82-5.96-7.4-5.96-10.23,0l-6.51,13.74c-2.38-1.9-4.95-2.96-7.65-2.96-3.47,0-6.75,1.75-9.66,4.83l-7.4-15.61c-2.82-5.96-7.4-5.96-10.23,0-2.82,5.96-2.82,15.61,0,21.57l7.62,16.08c-1.21,5.68-1.89,11.97-1.89,18.6,0,5.68.5,11.12,1.4,16.13l-7.14,15.05c-2.82,5.96-2.82,15.61,0,21.57,1.41,2.98,3.26,4.47,5.11,4.47s3.7-1.49,5.11-4.47l6.32-13.34c3.16,3.84,6.83,6.05,10.74,6.05,3.14,0,6.13-1.43,8.82-3.98l5.34,11.27c1.41,2.98,3.26,4.47,5.11,4.47s3.7-1.49,5.11-4.47c2.82-5.96,2.82-15.61,0-21.57l-5.12-10.8Z"/>
      <ellipse class="cls-2" cx="878.39" cy="255.9" rx="12.57" ry="26.52"/>
      <ellipse class="cls-38" cx="856.43" cy="210.67" rx="3.45" ry="7.27"/>
      <ellipse class="cls-3" cx="897.35" cy="210.67" rx="3.45" ry="7.27"/>
      <ellipse class="cls-25" cx="897.35" cy="297.14" rx="3.45" ry="7.27"/>
      <ellipse class="cls-5" cx="856.43" cy="297.14" rx="3.45" ry="7.27"/>
    </g>
  </g>
  <g>
    <path class="cls-22" d="m504.06,159.06h-8.19l-10.52,60.78h63.07c13.29,0,24.05-13.61,24.05-30.39h0c0-16.78-10.77-30.39-24.05-30.39h-44.36"/>
    <path class="cls-17" d="m545.1,192.93c.07-1.15.11-2.31.11-3.48s-.04-2.33-.11-3.48l-18.66-6.64c-.98-3.85-2.5-7.47-4.48-10.8l4.5-9.48,4-8.42c-1.54-1.74-3.19-3.38-4.92-4.92h-23.02v5.93c-1.83-.76-3.72-1.4-5.67-1.9l-6.64-18.66c-1.15-.07-2.31-.11-3.48-.11s-2.33.04-3.48.11h-16.06l-3.3,22.22-15.97-7.59h-23.02l11.51,20.7,10.59,2.63v50.79s0,0,0,0h-6.94s-15.09,6.14-15.16,13.34h23.02l17.89-8.51c1.11.66,2.27,1.25,3.45,1.81-1.03,4.68-2.97,14.85-2.07,21.33h16.06c1.15.07,2.31.11,3.48.11s2.33-.04,3.48-.11l6.64-18.66c2.48-.63,4.87-1.51,7.15-2.57l3.45,1.68-4.92,4.92s19.66-.11,23.02,0c1.74-1.54,3.38-3.19,4.92-4.92l-4-8.42-4.5-9.48c1.98-3.32,3.5-6.95,4.48-10.8l18.66-6.64Z"/>
    <g>
      <path class="cls-51" d="m423.98,219.85l-4,8.42c1.54,1.74,3.19,3.38,4.92,4.92l17.89-8.51c3.32,1.98,6.95,3.5,10.8,4.48l6.64,18.66c1.15.07,2.31.11,3.48.11s2.33-.04,3.48-.11l6.64-18.66c3.85-.98,7.47-2.5,10.8-4.48l17.89,8.51c1.74-1.54,3.38-3.19,4.92-4.92l-4-8.42-4.5-9.48c1.98-3.32,3.5-6.95,4.48-10.8l18.66-6.64c.07-1.15.11-2.31.11-3.48s-.04-2.33-.11-3.48l-18.66-6.64c-.98-3.85-2.5-7.47-4.48-10.8l4.5-9.48,4-8.42c-1.54-1.74-3.19-3.38-4.92-4.92l-17.89,8.51c-3.32-1.98-6.95-3.5-10.8-4.48l-6.64-18.66c-1.15-.07-2.31-.11-3.48-.11s-2.33.04-3.48.11l-6.64,18.66c-3.85.98-7.47,2.5-10.8,4.48l-17.89-8.51c-1.74,1.54-3.38,3.19-4.92,4.92l4,8.42v60.78Z"/>
      <g class="cls-49">
        <path class="cls-37" d="m392.36,219.85h73.36c16.78,0,30.39-13.61,30.39-30.39s-13.61-30.39-30.39-30.39h-1.02s-72.33,0-72.33,0c0,0-13.38,38.39,0,60.78Z"/>
      </g>
    </g>
    <path class="cls-31" d="m390.36,219.85h73.36c16.78,0,30.39-13.61,30.39-30.39s-13.61-30.39-30.39-30.39h-1.02s-72.33,0-72.33,0c0,0-13.38,38.39,0,60.78Z"/>
    <circle class="cls-43" cx="390.36" cy="189.45" r="30.39"/>
    <circle class="cls-41" cx="390.36" cy="189.45" r="21.86"/>
  </g>
  <g>
    <g>
      <path class="cls-39" d="m387.49,318.49h-8.19l-10.52,60.78h63.07c13.29,0,24.05-13.61,24.05-30.39h0c0-16.78-10.77-30.39-24.05-30.39h-44.36"/>
      <path class="cls-12" d="m428.53,352.36c.07-1.15.11-2.31.11-3.48s-.04-2.33-.11-3.48l-18.66-6.64c-.98-3.85-2.5-7.47-4.48-10.8l4.5-9.48,4-8.42c-1.54-1.74-3.19-3.38-4.92-4.92h-23.02v5.93c-1.83-.76-3.72-1.4-5.67-1.9l-6.64-18.66c-1.15-.07-2.31-.11-3.48-.11s-2.33.04-3.48.11h-16.06l-3.3,22.22-15.97-7.59h-23.02l11.51,20.7,10.59,2.63v50.79s0,0,0,0h-6.93s-15.09,6.14-15.17,13.34h23.02l17.89-8.51c1.11.66,2.27,1.25,3.45,1.81-1.03,4.68-2.97,14.85-2.07,21.33h16.06c1.15.07,2.31.11,3.48.11s2.33-.04,3.48-.11l6.64-18.66c2.48-.63,4.87-1.51,7.15-2.57l3.45,1.68-4.92,4.92s19.66-.11,23.02,0c1.74-1.54,3.38-3.19,4.92-4.92l-4-8.42-4.5-9.48c1.98-3.32,3.5-6.95,4.48-10.8l18.66-6.64Z"/>
      <path class="cls-24" d="m307.41,379.27l-4,8.42c1.54,1.74,3.19,3.38,4.92,4.92l17.89-8.51c3.32,1.98,6.95,3.5,10.8,4.48l6.64,18.66c1.15.07,2.31.11,3.48.11s2.33-.04,3.48-.11l6.64-18.66c3.85-.98,7.47-2.5,10.8-4.48l17.89,8.51c1.74-1.54,3.38-3.19,4.92-4.92l-4-8.42-4.5-9.48c1.98-3.32,3.5-6.95,4.48-10.8l18.66-6.64c.07-1.15.11-2.31.11-3.48s-.04-2.33-.11-3.48l-18.66-6.64c-.98-3.85-2.5-7.47-4.48-10.8l4.5-9.48,4-8.42c-1.54-1.74-3.19-3.38-4.92-4.92l-17.89,8.51c-3.32-1.98-6.95-3.5-10.8-4.48l-6.64-18.66c-1.15-.07-2.31-.11-3.48-.11s-2.33.04-3.48.11l-6.64,18.66c-3.85.98-7.47,2.5-10.8,4.48l-17.89-8.51c-1.74,1.54-3.38,3.19-4.92,4.92l4,8.42v60.78Z"/>
      <path class="cls-4" d="m249.56,378.64h97.58c16.78,0,30.39-13.32,30.39-29.75s-13.61-29.76-30.39-29.76h-1.02s-96.56,0-96.56,0c0,0-13.38,37.59,0,59.51Z"/>
      <circle class="cls-13" cx="249.56" cy="348.88" r="30.39"/>
    </g>
    <path class="cls-23" d="m141.49,322.24h108.24c14.68,0,26.57,11.9,26.57,26.57s-11.9,26.57-26.57,26.57h0s-108.24,0-108.24,0"/>
    <path class="cls-32" d="m163.15,333.42l-9.19,1c-1.81-1.57-3.92-2.81-6.24-3.61l-3.73-8.46c-.82-.08-1.66-.12-2.5-.12s-1.68.04-2.5.12l-3.73,8.46c-2.32.8-4.43,2.04-6.24,3.61l-9.19-1c-.96,1.35-1.8,2.8-2.5,4.33l5.46,7.46c-.22,1.17-.35,2.37-.35,3.61s.12,2.44.35,3.61l-5.46,7.46c.7,1.53,1.54,2.97,2.5,4.33l9.19-1c1.81,1.57,3.92,2.81,6.24,3.61l3.73,8.46c.82.08,1.66.12,2.5.12s1.68-.04,2.5-.12l3.73-8.46c2.32-.8,4.43-2.04,6.24-3.61l9.19,1c.96-1.35,1.8-2.8,2.5-4.33l-5.46-7.46c.22-1.17.35-2.37.35-3.61s-.12-2.44-.35-3.61l5.46-7.46c-.7-1.53-1.54-2.97-2.5-4.33Z"/>
    <circle class="cls-46" cx="141.49" cy="348.81" r="13.42"/>
    <polygon class="cls-7" points="163.15 333.42 192.15 333.42 194.7 337.41 165.65 337.41 163.15 333.42"/>
    <polygon class="cls-18" points="163.15 364.22 192.15 364.22 194.7 360.23 165.65 360.23 163.15 364.22"/>
  </g>
  <g>
    <path class="cls-15" d="m200.65,458.81h-39.52l33.9,26.1,18.03,33.96-34.47,57.69,18.03,27.23-3.18,67.54-36.25,29.2h43.46c9.45,0,18.41-2.12,26.42-5.9.68-.32,1.35-.66,2.02-1.01.31-.16.61-.32.93-.5.36-.19.71-.37,1.05-.57.36-.2.71-.4,1.05-.61.3-.17.59-.35.88-.52.37-.23.73-.46,1.09-.69.28-.16.54-.34.81-.52.37-.23.73-.49,1.09-.73.25-.18.51-.36.75-.53.37-.27.73-.53,1.08-.8.24-.17.49-.36.72-.54.36-.28.72-.56,1.06-.83.23-.18.46-.37.68-.57l1.04-.87c.22-.2.44-.39.66-.59.34-.3.67-.6,1.01-.91.22-.2.43-.4.65-.61.32-.31.65-.62.96-.94.22-.22.44-.45.66-.68.3-.3.6-.61.89-.93.29-.31.57-.64.86-.95.32-.36.64-.73.95-1.1.38-.44.75-.88,1.11-1.33.15-.17.29-.36.43-.54.34-.43.66-.84.98-1.28.13-.17.25-.36.39-.53.32-.45.65-.9.96-1.35.12-.16.22-.34.34-.5.32-.49.65-.97.96-1.47.09-.14.17-.28.27-.42.34-.54.66-1.08.97-1.63.03-.05.06-.09.09-.14.03-.07.08-.15.12-.22.27-.45.52-.91.76-1.38.08-.13.15-.27.22-.4.24-.46.49-.93.72-1.4.07-.13.13-.25.2-.38.23-.49.46-.97.69-1.47.03-.08.07-.17.12-.25.12-.27.24-.53.35-.8.65-1.48,1.24-3,1.77-4.53h0c.15-.45.29-.9.44-1.34.07-.23.14-.46.22-.68.12-.4.23-.8.34-1.19.08-.29.17-.58.24-.87.1-.37.2-.75.29-1.12.08-.32.16-.64.23-.96.08-.36.16-.72.24-1.09.07-.34.14-.68.21-1.03s.13-.69.2-1.05c.06-.36.12-.73.17-1.09.06-.35.12-.68.16-1.03.05-.38.1-.77.15-1.16.03-.34.08-.66.12-.98.03-.42.08-.84.12-1.26.02-.3.05-.6.07-.91.03-.47.06-.96.08-1.45.01-.24.03-.5.03-.74.03-.74.05-1.48.05-2.22,0-1.02-.03-2.02-.08-3.02-.01-.27-.03-.53-.05-.79-.06-.9-.13-1.8-.22-2.69-.01-.1-.01-.21-.02-.31-.1-.97-.24-1.93-.39-2.88-.05-.27-.08-.53-.13-.8-.14-.8-.29-1.58-.45-2.37-.05-.18-.08-.37-.12-.56-.2-.91-.43-1.82-.67-2.72-.07-.28-.15-.56-.23-.82-.2-.69-.4-1.39-.62-2.07-.08-.25-.16-.51-.24-.76-.28-.83-.58-1.68-.9-2.5-.12-.3-.24-.6-.36-.9-.24-.59-.49-1.17-.74-1.75-.14-.32-.27-.64-.42-.94-.17-.38-.35-.76-.53-1.13-.18-.38-.37-.76-.56-1.13-.17-.34-.36-.67-.54-1.02-.24-.46-.51-.94-.76-1.4-.21-.37-.42-.74-.64-1.1-.36-.6-.73-1.2-1.11-1.79-.75-1.18-1.54-2.34-2.37-3.46-.1-.13-.21-.25-.31-.39-.64-.86-1.3-1.69-1.98-2.51-.23-.27-.45-.52-.68-.79-.6-.71-1.24-1.4-1.87-2.07-.23-.25-.46-.5-.69-.74-.87-.88-1.75-1.75-2.66-2.58v-25.59c.97-.88,1.9-1.8,2.81-2.74.2-.21.4-.43.6-.65.74-.77,1.45-1.56,2.13-2.37.19-.22.37-.43.56-.65.83-1.01,1.65-2.05,2.43-3.11.03-.05.06-.09.09-.14.72-.98,1.4-2,2.05-3.04.09-.13.19-.25.28-.39.29-.47.58-.95.86-1.42.06-.1.12-.2.17-.29.47-.81.91-1.63,1.35-2.45.1-.22.21-.43.31-.64.39-.76.76-1.54,1.12-2.31.05-.09.09-.18.13-.28.39-.86.75-1.72,1.1-2.6.05-.12.09-.23.14-.35.03-.1.08-.21.12-.31.32-.82.62-1.67.91-2.51l.07-.21c.3-.91.58-1.83.83-2.75.07-.22.13-.45.18-.68.24-.89.46-1.79.66-2.69.01-.05.02-.09.03-.14.21-.95.38-1.91.56-2.88.03-.23.07-.46.1-.71.15-.95.29-1.9.39-2.87,0-.02,0-.05.01-.07.1-.98.17-1.98.23-2.97.02-.24.03-.5.05-.74.05-1.01.08-2.01.08-3.02,0-.75-.01-1.5-.05-2.24-.01-.27-.02-.53-.03-.79-.02-.49-.05-.96-.08-1.43-.02-.32-.06-.64-.08-.95-.03-.42-.07-.83-.12-1.25-.03-.35-.08-.69-.13-1.03-.05-.38-.09-.76-.15-1.14-.05-.36-.1-.72-.16-1.08-.06-.36-.12-.72-.17-1.06-.07-.37-.14-.74-.22-1.11-.06-.34-.13-.67-.2-1.01-.08-.38-.17-.76-.27-1.14-.07-.31-.15-.62-.22-.94-.1-.39-.21-.79-.31-1.17-.08-.29-.16-.58-.24-.87-.12-.4-.23-.81-.36-1.21-.08-.27-.17-.53-.25-.8-.14-.42-.28-.83-.43-1.25-.08-.23-.16-.47-.25-.71-.15-.44-.31-.87-.49-1.3-.07-.21-.15-.4-.23-.6-.18-.46-.37-.93-.57-1.38-.07-.15-.14-.3-.2-.45-.22-.5-.44-.99-.67-1.49-.03-.06-.06-.12-.09-.17-.43-.9-.88-1.79-1.35-2.67-.01,0-.01-.01-.01-.01-1.54-2.89-3.31-5.64-5.27-8.25-.06-.07-.12-.15-.19-.23-.38-.51-.79-1.01-1.19-1.5-.1-.14-.23-.28-.35-.42-.36-.44-.72-.87-1.09-1.28-.15-.17-.3-.34-.45-.51-.35-.38-.68-.76-1.04-1.13-.17-.19-.36-.38-.54-.57-.34-.35-.66-.68-1.01-1.02-.2-.2-.4-.4-.61-.6-.32-.31-.66-.62-.98-.93-.23-.21-.46-.42-.69-.62-.31-.28-.64-.57-.97-.84-.24-.21-.49-.43-.74-.62-.31-.27-.64-.53-.96-.79-.27-.21-.53-.42-.8-.62-.31-.25-.64-.5-.97-.73-.28-.21-.54-.42-.83-.61-.32-.23-.65-.46-.97-.68-.29-.2-.58-.4-.88-.59-.32-.22-.66-.43-.98-.64-.3-.2-.6-.39-.9-.58-.35-.21-.69-.4-1.04-.6-.29-.17-.59-.36-.89-.53-.38-.21-.77-.42-1.16-.62-.28-.14-.54-.29-.82-.44-.66-.34-1.33-.67-2-.98-8.01-3.78-16.98-5.9-26.42-5.9"/>
    <path class="cls-14" d="m219.15,634.64c-.06-.9-.13-1.8-.22-2.69-.01-.1-.01-.21-.02-.31-.1-.97-.24-1.93-.39-2.88-.05-.27-.08-.53-.13-.8-.14-.8-.29-1.58-.45-2.37-.05-.18-.08-.37-.12-.56-.2-.91-.43-1.82-.67-2.72-.07-.28-.15-.56-.23-.82-.2-.69-.4-1.39-.62-2.07-.08-.25-.16-.51-.24-.76-.28-.83-.58-1.68-.9-2.5-.12-.3-.24-.6-.36-.9-.24-.59-.49-1.17-.74-1.75-.14-.32-.27-.64-.42-.94-.17-.38-.35-.76-.53-1.13-.18-.38-.37-.76-.56-1.13-.17-.34-.36-.67-.54-1.02-.24-.46-.51-.94-.76-1.4-.21-.37-.42-.74-.64-1.1-.36-.6-.73-1.2-1.11-1.79-.75-1.18-1.54-2.34-2.37-3.46-.1-.13-.21-.25-.31-.39-.64-.86-1.3-1.69-1.98-2.51-.23-.27-.45-.52-.68-.79-.6-.71-1.24-1.4-1.87-2.07-.23-.25-.46-.5-.69-.74-.87-.88-1.75-1.75-2.66-2.58v-25.59c.97-.88,1.9-1.8,2.81-2.74.2-.21.4-.43.6-.65.74-.77,1.45-1.56,2.13-2.37.19-.22.37-.43.56-.65.83-1.01,1.65-2.05,2.43-3.11.03-.05.06-.09.09-.14.72-.98,1.4-2,2.05-3.04.09-.13.19-.25.28-.39.29-.47.58-.95.86-1.42.06-.1.12-.2.17-.29.47-.81.91-1.63,1.35-2.45.1-.22.21-.43.31-.64.39-.76.76-1.54,1.12-2.31.05-.09.09-.18.13-.28.39-.86.75-1.72,1.1-2.6.05-.12.09-.23.14-.35.03-.1.08-.21.12-.31.32-.82.62-1.67.91-2.51l.07-.21c.3-.91.58-1.83.83-2.75.07-.22.13-.45.18-.68.24-.89.46-1.79.66-2.69.01-.05.02-.09.03-.14.21-.95.38-1.91.56-2.88.03-.23.07-.46.1-.71.15-.95.29-1.9.39-2.87,0-.02,0-.05.01-.07.1-.98.17-1.98.23-2.97.02-.24.03-.5.05-.74.05-1.01.08-2.01.08-3.02,0-.75-.01-1.5-.05-2.24-.01-.27-.02-.53-.03-.79-.02-.49-.05-.96-.08-1.43-.02-.32-.06-.64-.08-.95-.03-.42-.07-.83-.12-1.25-.03-.35-.08-.69-.13-1.03-.05-.38-.09-.76-.15-1.14-.05-.36-.1-.72-.16-1.08-.06-.36-.12-.72-.17-1.06-.07-.37-.14-.74-.22-1.11-.06-.34-.13-.67-.2-1.01-.08-.38-.17-.76-.27-1.14-.07-.31-.15-.62-.22-.94-.1-.39-.21-.79-.31-1.17-.08-.29-.16-.58-.24-.87-.12-.4-.23-.81-.36-1.21-.08-.27-.17-.53-.25-.8-.14-.42-.28-.83-.43-1.25-.08-.23-.16-.47-.25-.71-.15-.44-.31-.87-.49-1.3-.07-.21-.15-.4-.23-.6-.18-.46-.37-.93-.57-1.38-.07-.15-.14-.3-.2-.45-.22-.5-.44-.99-.67-1.49-.03-.06-.06-.12-.09-.17-.43-.9-.88-1.79-1.35-2.67-.01,0-.01-.01-.01-.01-1.54-2.89-3.31-5.64-5.27-8.25-.06-.07-.12-.15-.19-.23-.38-.51-.79-1.01-1.19-1.5-.1-.14-.23-.28-.35-.42-.36-.44-.72-.87-1.09-1.28-.15-.17-.3-.34-.45-.51-.35-.38-.68-.76-1.04-1.13-.17-.19-.36-.38-.54-.57-.34-.35-.66-.68-1.01-1.02-.2-.2-.4-.4-.61-.6-.32-.31-.66-.62-.98-.93-.23-.21-.46-.42-.69-.62-.31-.28-.64-.57-.97-.84-.24-.21-.49-.43-.74-.62-.31-.27-.64-.53-.96-.79-.27-.21-.53-.42-.8-.62-.31-.25-.64-.5-.97-.73-.28-.21-.54-.42-.83-.61-.32-.23-.65-.46-.97-.68-.29-.2-.58-.4-.88-.59-.32-.22-.66-.43-.98-.64-.3-.2-.6-.39-.9-.58-.35-.21-.69-.4-1.04-.6-.29-.17-.59-.36-.89-.53-.38-.21-.77-.42-1.16-.62-.28-.14-.54-.29-.82-.44-.66-.34-1.33-.67-2-.98-8.01-3.78-16.98-5.9-26.42-5.9-34.29,0-62.09,27.81-62.09,62.09,0,18.23,7.84,34.61,20.35,45.97v25.61c-12.51,11.36-20.35,27.75-20.35,45.97,0,34.29,27.8,62.09,62.09,62.09,9.45,0,18.41-2.12,26.42-5.9.68-.32,1.35-.66,2.02-1.01.31-.16.61-.32.93-.5.36-.19.71-.37,1.05-.57.36-.2.71-.4,1.05-.61.3-.17.59-.35.88-.52.37-.23.73-.46,1.09-.69.28-.16.54-.34.81-.52.37-.23.73-.49,1.09-.73.25-.18.51-.36.75-.53.37-.27.73-.53,1.08-.8.24-.17.49-.36.72-.54.36-.28.72-.56,1.06-.83.23-.18.46-.37.68-.57l1.04-.87c.22-.2.44-.39.66-.59.34-.3.67-.6,1.01-.91.22-.2.43-.4.65-.61.32-.31.65-.62.96-.94.22-.22.44-.45.66-.68.3-.3.6-.61.89-.93.29-.31.57-.64.86-.95.32-.36.64-.73.95-1.1.38-.44.75-.88,1.11-1.33.15-.17.29-.36.43-.54.34-.43.66-.84.98-1.28.13-.17.25-.36.39-.53.32-.45.65-.9.96-1.35.12-.16.22-.34.34-.5.32-.49.65-.97.96-1.47.09-.14.17-.28.27-.42.34-.54.66-1.08.97-1.63.03-.05.06-.09.09-.14.03-.07.08-.15.12-.22.27-.45.52-.91.76-1.38.08-.13.15-.27.22-.4.24-.46.49-.93.72-1.4.07-.13.13-.25.2-.38.23-.49.46-.97.69-1.47.03-.08.07-.17.12-.25.12-.27.24-.53.35-.8.65-1.48,1.24-3,1.77-4.53h0c.15-.45.29-.9.44-1.34.07-.23.14-.46.22-.68.12-.4.23-.8.34-1.19.08-.29.17-.58.24-.87.1-.37.2-.75.29-1.12.08-.32.16-.64.23-.96.08-.36.16-.72.24-1.09.07-.34.14-.68.21-1.03s.13-.69.2-1.05c.06-.36.12-.73.17-1.09.06-.35.12-.68.16-1.03.05-.38.1-.77.15-1.16.03-.34.08-.66.12-.98.03-.42.08-.84.12-1.26.02-.3.05-.6.07-.91.03-.47.06-.96.08-1.45.01-.24.03-.5.03-.74.03-.74.05-1.48.05-2.22,0-1.02-.03-2.02-.08-3.02-.01-.27-.03-.53-.05-.79Zm-44.75,32.38c-5.04,2.97-10.93,4.68-17.21,4.68-18.76,0-33.96-15.2-33.96-33.95s15.21-33.96,33.96-33.96c6.29,0,12.18,1.71,17.22,4.7,10.01,5.9,16.73,16.8,16.73,29.27s-6.72,23.37-16.75,29.27Zm.01-118.89c-5.04,2.98-10.93,4.7-17.22,4.7-18.76,0-33.96-15.21-33.96-33.96s15.21-33.95,33.96-33.95c6.29,0,12.18,1.7,17.22,4.68,10.01,5.9,16.73,16.8,16.73,29.27s-6.72,23.37-16.73,29.27Z"/>
    <path class="cls-8" d="m174.4,667.02c-5.04,2.97-10.93,4.68-17.21,4.68-18.76,0-33.96-15.2-33.96-33.95s15.21-33.96,33.96-33.96c6.29,0,12.18,1.71,17.22,4.7-10.03,5.9-16.75,16.8-16.75,29.27s6.72,23.36,16.73,29.27Z"/>
    <path class="cls-20" d="m174.41,548.13c-5.04,2.98-10.93,4.7-17.22,4.7-18.76,0-33.96-15.21-33.96-33.96s15.21-33.95,33.96-33.95c6.29,0,12.18,1.7,17.22,4.68-10.03,5.9-16.75,16.8-16.75,29.27s6.72,23.37,16.75,29.27Z"/>
    <path class="cls-47" d="m129.67,691.87l-5.55-3.3c-2.56-1.52-3.74-4.6-2.86-7.45h0c1.72-5.56,8.17-7.88,13.17-4.91,5.43,3.23,11.64,5.35,18.35,6,25.59,2.48,48.21-17.37,48.51-43.64.26-22.36-16.69-41.16-38.84-44.3-1.77-.25-3.53-.46-5.27-.59-7.82-.59-13.87-7.07-13.87-14.91h0c0-7.46,5.49-13.81,12.87-14.8,2.34-.31,4.71-.74,7.1-1.12,20.32-3.19,36.3-19.57,37.86-40.07,2.15-28.28-21.46-50.36-48.38-47.75-7.16.69-13.75,3.06-19.43,6.67-4.37,2.78-10.18.58-11.72-4.36h0c-1.1-3.55.38-5.09,3.57-6.99l4.46-2.65"/>
  </g>
  <path class="cls-40" d="m723.84,842.2v-195.32c12.38-6.92,20.44-20.66,19.04-36.16-1.62-18.05-16.4-32.56-34.47-33.89-3.08-.23-6.08-.08-8.96.42-2.09.34-4.12.86-6.08,1.52-.15-.68-.29-1.36-.44-2.04-14.85-67.47-74.97-117.97-146.9-117.97s-151.42,57.18-148.48,126.2c-7.08-5.7-16.3-8.88-26.25-8.14-1.15.08-2.29.23-3.42.42-16.5,2.77-29.53,16.56-31.05,33.47-1.39,15.49,6.64,29.24,19.03,36.16v195.32c-11.44,6.42-19.19,18.65-19.19,32.7,0,20.7,16.77,37.45,37.45,37.45h.03c.7.08,33.09,3.63,75.68,7.1,30.27,2.46,60.92,4.81,80.68,5.32.03.02.08.02.11,0,.6.02,1.18.03,1.77.05,0,.08.02.15.02.15,0,0,.99-.03,2.8-.11,6.08.06,10.78-.1,13.66-.57,19.43-.86,52.66-2.53,80.98-4.83,42.61-3.47,74.99-7.02,75.68-7.1h.03c20.7,0,37.45-16.76,37.45-37.45,0-14.05-7.73-26.29-19.19-32.7Zm-355.91-244.43c1.93-.73,4-1.13,6.19-1.13,9.71,0,17.55,7.84,17.55,17.54s-7.84,17.57-17.55,17.57c-2.19,0-4.26-.41-6.19-1.13-6.64-2.5-11.36-8.91-11.36-16.43s4.72-13.91,11.36-16.4Zm296.11,61.24c9.27,0,16.79,7.52,16.79,16.81s-7.52,16.79-16.79,16.79-16.81-7.52-16.81-16.79,7.52-16.81,16.81-16.81Zm-265.17,16.81c0-9.29,7.52-16.81,16.81-16.81s16.79,7.52,16.79,16.81-7.52,16.79-16.79,16.79-16.81-7.52-16.81-16.79Zm77.73,69.27c0-35.57,27.18-64.81,61.89-68.08,32.2,5.45,57.39,33.42,57.39,66.98,0,36.27-29.95,65.99-65.85,67.84-30.58-6.82-53.43-34.1-53.43-66.74Zm172.92,39.38c9.27,0,16.79,7.52,16.79,16.81s-7.52,16.79-16.79,16.79-16.81-7.52-16.81-16.79,7.52-16.81,16.81-16.81Zm-236.11,16.81c0-9.29,7.52-16.81,16.79-16.81s16.81,7.52,16.81,16.81-7.54,16.79-16.81,16.79-16.79-7.52-16.79-16.79Zm126.9,52.62c9.27,0,16.79,7.52,16.79,16.79s-7.52,16.81-16.79,16.81-16.81-7.52-16.81-16.81,7.52-16.79,16.81-16.79Zm165.27,38.56c-2.17,0-4.26-.39-6.17-1.12-6.64-2.5-11.38-8.91-11.38-16.43s4.73-13.94,11.38-16.45c1.91-.73,4-1.12,6.17-1.12,9.71,0,17.57,7.88,17.57,17.57s-7.86,17.55-17.57,17.55Zm0-295.82c9.71,0,17.57,7.84,17.57,17.54s-7.86,17.57-17.57,17.57c-2.17,0-4.26-.39-6.17-1.12-6.64-2.5-11.38-8.91-11.38-16.45s4.73-13.92,11.38-16.42c1.91-.73,4-1.12,6.17-1.12Zm-52.4-62.52c9.27,0,16.79,7.52,16.79,16.81s-7.52,16.79-16.79,16.79-16.81-7.52-16.81-16.79,7.52-16.81,16.81-16.81Zm-107.94-70.58c9.29,0,16.81,7.52,16.81,16.81s-7.52,16.79-16.81,16.79-16.79-7.52-16.79-16.79,7.52-16.81,16.79-16.81Zm-110.19,70.58c9.29,0,16.81,7.52,16.81,16.81s-7.52,16.79-16.81,16.79-16.79-7.52-16.79-16.79,7.52-16.81,16.79-16.81Zm-60.94,358.34c-2.19,0-4.26-.41-6.19-1.13-6.64-2.5-11.36-8.91-11.36-16.42s4.72-13.94,11.36-16.43c1.93-.73,4-1.13,6.19-1.13,9.71,0,17.55,7.88,17.55,17.57s-7.84,17.55-17.55,17.55Z"/>
  <g>
    <path class="cls-50" d="m681.18,638.6c1.89-9.51-27.52-9.34-27.52-19.41,0-7.96,29.79-25.78,28.6-33.39.39-.32.61-.49.61-.49,0,0-.24,0-.7-.02-.35-2.2-.75-4.38-1.19-6.54-14.07-68.48-74.69-119.99-147.34-119.99s-136.89,54.64-148.48,126.19c-1.28,7.89-1.94,15.98-1.94,24.23,0,6.42.4,12.74,1.18,18.94l-4.15,3.62-26.06,16.38v197.49l26.06,4.07,7.2,25.21-3.26,20.16,118.27,13.57,25.52,9.83,31.64-6.25,109.79-17.15s-10.65-22.2,3.63-35.57c14.29-13.37,28.58-13.87,28.58-13.87v-202.24s-10.63-.8-20.45-4.77Zm-153.26,248.88c-9.28,0-16.81-7.52-16.81-16.8s7.53-16.8,16.81-16.8,16.8,7.52,16.8,16.8-7.53,16.8-16.8,16.8Zm-68.85-143.49c0-37.47,30.49-67.96,67.95-67.96s68.85,30.49,68.85,67.96-31.85,67.82-69.22,67.94c-37.29-.2-67.58-30.6-67.58-67.94Zm192.58-51.38c-9.27,0-16.8-7.53-16.8-16.81s7.53-16.8,16.8-16.8,16.8,7.53,16.8,16.8-7.52,16.81-16.8,16.81Zm-248.36-33.6c9.27,0,16.8,7.53,16.8,16.8s-7.53,16.81-16.8,16.81-16.8-7.53-16.8-16.81,7.52-16.8,16.8-16.8Zm14.52,159.05c-9.28,0-16.8-7.52-16.8-16.8s7.52-16.8,16.8-16.8,16.8,7.52,16.8,16.8-7.52,16.8-16.8,16.8Zm219.32-33.59c9.28,0,16.8,7.52,16.8,16.8s-7.52,16.8-16.8,16.8-16.8-7.52-16.8-16.8,7.52-16.8,16.8-16.8Zm3.66-250.35c9.28,0,16.81,7.52,16.81,16.8s-7.53,16.8-16.81,16.8-16.8-7.52-16.8-16.8,7.53-16.8,16.8-16.8Zm-107.93-70.59c9.28,0,16.81,7.53,16.81,16.8s-7.53,16.81-16.81,16.81-16.8-7.53-16.8-16.81,7.53-16.8,16.8-16.8Zm-110.18,70.59c9.28,0,16.8,7.52,16.8,16.8s-7.52,16.8-16.8,16.8-16.8-7.52-16.8-16.8,7.52-16.8,16.8-16.8Z"/>
    <g class="cls-48">
      <path class="cls-36" d="m716.47,849.2v-195.32c12.37-6.92,20.42-20.66,19.03-36.16-1.52-16.9-14.55-30.71-31.05-33.47-1.13-.19-2.27-.34-3.42-.42-1.04-.08-2.07-.11-3.1-.1-4.18.03-8.2.75-11.94,2.03-7.11,2.45-13.26,7-17.71,12.88-6.5,2.53-24.33,5.8-29.03,5.23-18.44-2.22-30.5-16.68-30.63-16.82l-2.29-2.79-3.65-.02h-140.43l-3.65.02-2.29,2.79c-.13.15-12.19,14.6-30.63,16.82-4.7.57-22.53-2.71-29.03-5.23-1.88-2.5-4.07-4.73-6.5-6.69-4.91-3.94-10.83-6.66-17.29-7.7-2.88-.5-5.88-.65-8.96-.42-18.09,1.31-32.85,15.83-34.47,33.89-1.39,15.49,6.66,29.24,19.04,36.16v195.32c-11.46,6.42-19.19,18.65-19.19,32.7,0,20.7,16.76,37.47,37.44,37.47h.03c.71.06,33.09,3.6,75.7,7.08,31.23,2.54,62.88,4.96,82.54,5.35.02.1.02.16.02.16,0,0,.99-.03,2.82-.11,2.87.03,5.45.02,7.67-.08.03.02.08.02.11,0,2.4-.08,4.39-.24,5.87-.49,9.72-.42,22.88-1.07,37.15-1.86,14.29-.83,29.67-1.82,43.84-2.97,42.61-3.48,74.99-7.02,75.7-7.08h.03c20.68,0,37.45-16.77,37.45-37.47,0-14.05-7.75-26.29-19.19-32.7Zm-18.26-245.56c2.19,0,4.26.39,6.19,1.12,6.64,2.5,11.36,8.9,11.36,16.43s-4.72,13.92-11.36,16.43c-1.93.73-4,1.12-6.19,1.12-9.71,0-17.57-7.88-17.57-17.55s7.86-17.55,17.57-17.55Zm-46.09,28.64c4.52-1.69,9.56-.15,12.48,3.7,10.92,14.38,23.48,19.66,30.7,21.54,3.45.91,5.87,4.04,5.87,7.62v78.21h-27.94v-4.64c0-4.93-4.23-8.87-9.25-8.38-4.38.42-7.6,4.34-7.6,8.74v4.28h-40.18v-67.71c0-5.33,1.56-10.45,4.49-14.81,6.95-10.31,17.18-23.24,31.44-28.54Zm-214.15-15.91c9.84-2.59,21.47-7.54,27.66-16.81h133.69c6.19,9.27,17.81,14.21,27.66,16.81,5.32,1.38,6.64,8.23,2.35,11.65-4.46,3.57-8.27,7.44-11.46,11.1-32.58-27.13-82.25-30.44-84.48-30.57l-1.82.11-.02-.11c-.36.02-1.99.13-4.6.41-6.69.71-19.85,2.59-34.73,7.11-14.89,4.51-31.51,11.7-45.15,23.05-3.19-3.66-7-7.54-11.46-11.1-4.29-3.42-2.97-10.27,2.35-11.65Zm11.91,251.88l4.62,2.56-17.37,30.05c-13.31-1.7-25.15-3.27-32.25-4.36-1.75-.26-2.79-2.01-2.29-3.7,1.05-3.45,1.62-7.1,1.62-10.89,0-20.7-16.77-37.45-37.47-37.45h-.02c-1.6,0-2.93-1.25-2.93-2.85v-82.95h27.94v4.26c0,4.39,3.21,8.33,7.6,8.74,5.01.49,9.25-3.45,9.25-8.38v-4.62h40.55c2.29,25.01,15.69,46.84,35.18,60.52l-21.41,37.05-4.51-2.51c-3.84-2.14-8.83-1.25-11.33,2.38-2.87,4.15-1.49,9.76,2.8,12.15Zm-83.14,31.21c-9.71,0-17.55-7.84-17.55-17.55s7.84-17.57,17.55-17.57c2.17,0,4.26.39,6.19,1.13,6.64,2.5,11.38,8.91,11.38,16.43s-4.73,13.94-11.38,16.42c-1.93.75-4.02,1.13-6.19,1.13Zm90.24-247.2c-.19-.29-.41-.58-.62-.91,16.22-13.78,38.33-20.76,54.53-24.25,6.94-1.47,13.47,3.84,13.47,10.94v30.05c-18.38,1.69-35.04,9.37-48,21.05-4.73,4.28-12.28.86-12.28-5.51v-8.01c0-8.41-2.46-16.48-7.1-23.37Zm7.1,98.73c0-37.47,30.48-67.95,67.95-67.95,3.89,0,7.73.34,11.46.97,32.2,5.45,57.39,33.42,57.39,66.98,0,36.27-29.95,65.99-65.85,67.84-1.12.06-2.25.1-3.37.1-37.31-.19-67.58-30.58-67.58-67.94Zm124.51-61.84c-12.97-11.68-29.64-19.37-48-21.05v-30.05c0-7.1,6.53-12.41,13.47-10.94,16.21,3.48,38.31,10.47,54.54,24.25-.21.32-.42.62-.62.91-4.64,6.89-7.1,14.96-7.1,23.37v8.01c0,6.37-7.55,9.79-12.28,5.51Zm-188.24-53.17c2.92-3.84,7.96-5.38,12.48-3.7,14.26,5.3,24.49,18.23,31.44,28.54,2.93,4.36,4.49,9.48,4.49,14.81v67.71h-40.18v-4.28c0-4.39-3.23-8.31-7.6-8.74-5.02-.49-9.25,3.45-9.25,8.38v4.64h-27.94v-78.21c0-3.58,2.41-6.71,5.87-7.62,7.21-1.88,19.77-7.16,30.7-21.54Zm-27.42-31.2c6.64,2.48,11.38,8.88,11.38,16.42s-4.73,13.92-11.38,16.42c-1.93.75-4.02,1.13-6.19,1.13-9.71,0-17.55-7.88-17.55-17.55s7.84-17.55,17.55-17.55c2.17,0,4.26.39,6.19,1.13Zm181.3,305.88c-7.76.65-7.8,6.06-21.75,6.9-13.97-.84-14-6.26-21.77-6.9-8.28-1.49-32.95-4.62-57.13-7.7l14.28-24.68,3.47,1.94c1.31.73,2.71,1.07,4.1,1.07,3.31,0,6.51-1.96,7.86-5.38,1.57-3.97-.29-8.48-4.02-10.55l-2.98-1.67,21.31-36.9c10.63,4.85,22.45,7.54,34.88,7.47,12.41.06,24.23-2.63,34.86-7.47l21.31,36.9-2.98,1.67c-3.73,2.07-5.59,6.58-4.02,10.55,1.35,3.42,4.55,5.38,7.86,5.38,1.39,0,2.79-.34,4.1-1.07l3.47-1.94,14.28,24.68c-24.18,3.08-48.85,6.21-57.13,7.7Zm108.13-17.86c.52,1.69-.53,3.44-2.29,3.7-7.1,1.09-18.95,2.66-32.25,4.36l-17.37-30.05,4.62-2.56c4.29-2.4,5.67-8.01,2.8-12.15-2.5-3.63-7.49-4.52-11.33-2.38l-4.51,2.51-21.41-37.05c9.69-6.79,17.89-15.62,23.95-25.85,6.14-10.34,10.08-22.11,11.23-34.67h40.55v4.62c0,4.93,4.25,8.87,9.25,8.38,4.38-.41,7.6-4.34,7.6-8.74v-4.26h27.94v82.95c0,1.6-1.33,2.85-2.93,2.85h-.02c-20.68,0-37.47,16.76-37.47,37.45,0,3.79.57,7.44,1.62,10.89Zm35.85,6.66c-9.71,0-17.57-7.84-17.57-17.55s7.86-17.57,17.57-17.57c2.19,0,4.26.39,6.19,1.12,6.64,2.51,11.36,8.93,11.36,16.45s-4.72,13.94-11.36,16.43c-1.93.73-4,1.12-6.19,1.12Z"/>
    </g>
  </g>
  <path class="cls-33" d="m711.47,842.2v-195.32c12.37-6.92,20.42-20.66,19.03-36.16-1.52-16.9-14.55-30.71-31.05-33.47-1.13-.19-2.27-.34-3.42-.42-1.04-.08-2.07-.11-3.1-.1-4.18.03-8.2.75-11.94,2.03-7.11,2.45-13.26,7-17.71,12.88-6.5,2.53-24.33,5.8-29.03,5.23-18.44-2.22-30.5-16.68-30.63-16.82l-2.29-2.79-3.65-.02h-140.43l-3.65.02-2.29,2.79c-.13.15-12.19,14.6-30.63,16.82-4.7.57-22.53-2.71-29.03-5.23-1.88-2.5-4.07-4.73-6.5-6.69-4.91-3.94-10.83-6.66-17.29-7.7-2.88-.5-5.88-.65-8.96-.42-18.09,1.31-32.85,15.83-34.47,33.89-1.39,15.49,6.66,29.24,19.04,36.16v195.32c-11.46,6.42-19.19,18.65-19.19,32.7,0,20.7,16.76,37.47,37.44,37.47h.03c.71.06,33.09,3.6,75.7,7.08,31.23,2.54,62.88,4.96,82.54,5.35.02.1.02.16.02.16,0,0,.99-.03,2.82-.11,2.87.03,5.45.02,7.67-.08.03.02.08.02.11,0,2.4-.08,4.39-.24,5.87-.49,9.72-.42,22.88-1.07,37.15-1.86,14.29-.83,29.67-1.82,43.84-2.97,42.61-3.48,74.99-7.02,75.7-7.08h.03c20.68,0,37.45-16.77,37.45-37.47,0-14.05-7.75-26.29-19.19-32.7Zm-18.26-245.56c2.19,0,4.26.39,6.19,1.12,6.64,2.5,11.36,8.9,11.36,16.43s-4.72,13.92-11.36,16.43c-1.93.73-4,1.12-6.19,1.12-9.71,0-17.57-7.88-17.57-17.55s7.86-17.55,17.57-17.55Zm-46.09,28.64c4.52-1.69,9.56-.15,12.48,3.7,10.92,14.38,23.48,19.66,30.7,21.54,3.45.91,5.87,4.04,5.87,7.62v78.21h-27.94v-4.64c0-4.93-4.23-8.87-9.25-8.38-4.38.42-7.6,4.34-7.6,8.74v4.28h-40.18v-67.71c0-5.33,1.56-10.45,4.49-14.81,6.95-10.31,17.18-23.24,31.44-28.54Zm-214.15-15.91c9.84-2.59,21.47-7.54,27.66-16.81h133.69c6.19,9.27,17.81,14.21,27.66,16.81,5.32,1.38,6.64,8.23,2.35,11.65-4.46,3.57-8.27,7.44-11.46,11.1-32.58-27.13-82.25-30.44-84.48-30.57l-1.82.11-.02-.11c-.36.02-1.99.13-4.6.41-6.69.71-19.85,2.59-34.73,7.11-14.89,4.51-31.51,11.7-45.15,23.05-3.19-3.66-7-7.54-11.46-11.1-4.29-3.42-2.97-10.27,2.35-11.65Zm11.91,251.88l4.62,2.56-17.37,30.05c-13.31-1.7-25.15-3.27-32.25-4.36-1.75-.26-2.79-2.01-2.29-3.7,1.05-3.45,1.62-7.1,1.62-10.89,0-20.7-16.77-37.45-37.47-37.45h-.02c-1.6,0-2.93-1.25-2.93-2.85v-82.95h27.94v4.26c0,4.39,3.21,8.33,7.6,8.74,5.01.49,9.25-3.45,9.25-8.38v-4.62h40.55c2.29,25.01,15.69,46.84,35.18,60.52l-21.41,37.05-4.51-2.51c-3.84-2.14-8.83-1.25-11.33,2.38-2.87,4.15-1.49,9.76,2.8,12.15Zm-83.14,31.21c-9.71,0-17.55-7.84-17.55-17.55s7.84-17.57,17.55-17.57c2.17,0,4.26.39,6.19,1.13,6.64,2.5,11.38,8.91,11.38,16.43s-4.73,13.94-11.38,16.42c-1.93.75-4.02,1.13-6.19,1.13Zm90.24-247.2c-.19-.29-.41-.58-.62-.91,16.22-13.78,38.33-20.76,54.53-24.25,6.94-1.47,13.47,3.84,13.47,10.94v30.05c-18.38,1.69-35.04,9.37-48,21.05-4.73,4.28-12.28.86-12.28-5.51v-8.01c0-8.41-2.46-16.48-7.1-23.37Zm7.1,98.73c0-37.47,30.48-67.95,67.95-67.95,3.89,0,7.73.34,11.46.97,32.2,5.45,57.39,33.42,57.39,66.98,0,36.27-29.95,65.99-65.85,67.84-1.12.06-2.25.1-3.37.1-37.31-.19-67.58-30.58-67.58-67.94Zm124.51-61.84c-12.97-11.68-29.64-19.37-48-21.05v-30.05c0-7.1,6.53-12.41,13.47-10.94,16.21,3.48,38.31,10.47,54.54,24.25-.21.32-.42.62-.62.91-4.64,6.89-7.1,14.96-7.1,23.37v8.01c0,6.37-7.55,9.79-12.28,5.51Zm-188.24-53.17c2.92-3.84,7.96-5.38,12.48-3.7,14.26,5.3,24.49,18.23,31.44,28.54,2.93,4.36,4.49,9.48,4.49,14.81v67.71h-40.18v-4.28c0-4.39-3.23-8.31-7.6-8.74-5.02-.49-9.25,3.45-9.25,8.38v4.64h-27.94v-78.21c0-3.58,2.41-6.71,5.87-7.62,7.21-1.88,19.77-7.16,30.7-21.54Zm-27.42-31.2c6.64,2.48,11.38,8.88,11.38,16.42s-4.73,13.92-11.38,16.42c-1.93.75-4.02,1.13-6.19,1.13-9.71,0-17.55-7.88-17.55-17.55s7.84-17.55,17.55-17.55c2.17,0,4.26.39,6.19,1.13Zm181.3,305.88c-7.76.65-7.8,6.06-21.75,6.9-13.97-.84-14-6.26-21.77-6.9-8.28-1.49-32.95-4.62-57.13-7.7l14.28-24.68,3.47,1.94c1.31.73,2.71,1.07,4.1,1.07,3.31,0,6.51-1.96,7.86-5.38,1.57-3.97-.29-8.48-4.02-10.55l-2.98-1.67,21.31-36.9c10.63,4.85,22.45,7.54,34.88,7.47,12.41.06,24.23-2.63,34.86-7.47l21.31,36.9-2.98,1.67c-3.73,2.07-5.59,6.58-4.02,10.55,1.35,3.42,4.55,5.38,7.86,5.38,1.39,0,2.79-.34,4.1-1.07l3.47-1.94,14.28,24.68c-24.18,3.08-48.85,6.21-57.13,7.7Zm108.13-17.86c.52,1.69-.53,3.44-2.29,3.7-7.1,1.09-18.95,2.66-32.25,4.36l-17.37-30.05,4.62-2.56c4.29-2.4,5.67-8.01,2.8-12.15-2.5-3.63-7.49-4.52-11.33-2.38l-4.51,2.51-21.41-37.05c9.69-6.79,17.89-15.62,23.95-25.85,6.14-10.34,10.08-22.11,11.23-34.67h40.55v4.62c0,4.93,4.25,8.87,9.25,8.38,4.38-.41,7.6-4.34,7.6-8.74v-4.26h27.94v82.95c0,1.6-1.33,2.85-2.93,2.85h-.02c-20.68,0-37.47,16.76-37.47,37.45,0,3.79.57,7.44,1.62,10.89Zm35.85,6.66c-9.71,0-17.57-7.84-17.57-17.55s7.86-17.57,17.57-17.57c2.19,0,4.26.39,6.19,1.12,6.64,2.51,11.36,8.93,11.36,16.45s-4.72,13.94-11.36,16.43c-1.93.73-4,1.12-6.19,1.12Z"/>
  <path class="cls-34" d="m530.03,811.82c-1.12.06-2.25.1-3.37.1-37.31-.19-67.58-30.58-67.58-67.94s30.48-67.95,67.95-67.95c3.89,0,7.73.34,11.46.97-34.71,3.27-61.89,32.51-61.89,68.08,0,32.64,22.85,59.92,53.43,66.74Z"/>
</svg>