<?xml version="1.0" encoding="UTF-8"?>
<svg id="Layer_1" data-name="Layer 1" xmlns="http://www.w3.org/2000/svg" xmlns:xlink="http://www.w3.org/1999/xlink" viewBox="0 0 1000 1000">
  <defs>
    <style>
      .cls-1 {
        fill: url(#linear-gradient-38);
      }

      .cls-1, .cls-2, .cls-3, .cls-4, .cls-5, .cls-6, .cls-7, .cls-8, .cls-9, .cls-10, .cls-11, .cls-12, .cls-13, .cls-14, .cls-15, .cls-16, .cls-17, .cls-18, .cls-19, .cls-20, .cls-21, .cls-22, .cls-23, .cls-24, .cls-25, .cls-26, .cls-27, .cls-28, .cls-29, .cls-30, .cls-31, .cls-32, .cls-33, .cls-34, .cls-35, .cls-36, .cls-37, .cls-38, .cls-39, .cls-40, .cls-41, .cls-42, .cls-43, .cls-44, .cls-45, .cls-46, .cls-47, .cls-48, .cls-49, .cls-50, .cls-51, .cls-52, .cls-53, .cls-54, .cls-55, .cls-56, .cls-57, .cls-58, .cls-59, .cls-60, .cls-61, .cls-62, .cls-63, .cls-64, .cls-65, .cls-66, .cls-67, .cls-68, .cls-69, .cls-70, .cls-71, .cls-72, .cls-73, .cls-74, .cls-75 {
        stroke-width: 0px;
      }

      .cls-2 {
        fill: url(#linear-gradient-12);
      }

      .cls-76, .cls-77 {
        letter-spacing: 0em;
      }

      .cls-78 {
        letter-spacing: 0em;
      }

      .cls-79 {
        fill: #1a1a1a;
        font-size: 18px;
      }

      .cls-3 {
        fill: url(#linear-gradient-17);
      }

      .cls-80, .cls-81, .cls-82, .cls-83, .cls-77, .cls-84 {
        font-family: Montserrat-Regular, Montserrat;
      }

      .cls-4 {
        fill: url(#linear-gradient-19);
      }

      .cls-5 {
        fill: url(#linear-gradient-33);
      }

      .cls-6 {
        fill: url(#linear-gradient);
      }

      .cls-7 {
        fill: url(#linear-gradient-62);
      }

      .cls-85 {
        letter-spacing: 0em;
      }

      .cls-8 {
        fill: url(#linear-gradient-67);
      }

      .cls-9 {
        fill: url(#linear-gradient-57);
      }

      .cls-10 {
        fill: url(#linear-gradient-21);
      }

      .cls-11 {
        fill: url(#linear-gradient-6);
      }

      .cls-12 {
        fill: url(#linear-gradient-42);
      }

      .cls-86, .cls-87, .cls-88, .cls-89, .cls-90, .cls-91 {
        font-family: Montserrat-Bold, Montserrat;
        font-weight: 700;
      }

      .cls-13 {
        fill: url(#linear-gradient-15);
      }

      .cls-14 {
        fill: url(#linear-gradient-11);
      }

      .cls-15 {
        fill: url(#linear-gradient-73);
      }

      .cls-16 {
        fill: url(#linear-gradient-5);
      }

      .cls-87 {
        letter-spacing: 0em;
      }

      .cls-17 {
        fill: url(#linear-gradient-31);
      }

      .cls-18 {
        fill: url(#linear-gradient-71);
      }

      .cls-19 {
        fill: url(#linear-gradient-58);
      }

      .cls-20 {
        fill: url(#linear-gradient-63);
      }

      .cls-92, .cls-82, .cls-89 {
        letter-spacing: 0em;
      }

      .cls-21 {
        fill: url(#linear-gradient-34);
      }

      .cls-93 {
        font-family: Montserrat-BlackItalic, 'Montserrat Black';
        font-size: 35px;
        font-style: italic;
        font-weight: 800;
      }

      .cls-93, .cls-74 {
        fill: #4f70f7;
      }

      .cls-94 {
        letter-spacing: -.05em;
      }

      .cls-22 {
        fill: url(#linear-gradient-41);
      }

      .cls-23 {
        fill: url(#linear-gradient-40);
      }

      .cls-24 {
        fill: url(#linear-gradient-66);
      }

      .cls-95 {
        letter-spacing: 0em;
      }

      .cls-25 {
        fill: #e6e9f2;
      }

      .cls-26 {
        fill: url(#linear-gradient-13);
      }

      .cls-27 {
        fill: url(#linear-gradient-23);
      }

      .cls-96 {
        letter-spacing: -.02em;
      }

      .cls-28 {
        fill: url(#linear-gradient-25);
      }

      .cls-29 {
        fill: url(#linear-gradient-43);
      }

      .cls-30 {
        fill: url(#linear-gradient-16);
      }

      .cls-31 {
        fill: url(#linear-gradient-22);
      }

      .cls-32 {
        fill: url(#linear-gradient-54);
      }

      .cls-33 {
        fill: url(#linear-gradient-55);
      }

      .cls-34 {
        fill: url(#linear-gradient-35);
      }

      .cls-35 {
        fill: url(#linear-gradient-50);
      }

      .cls-36 {
        fill: url(#linear-gradient-32);
      }

      .cls-37 {
        fill: url(#linear-gradient-60);
      }

      .cls-38 {
        fill: url(#linear-gradient-59);
      }

      .cls-39 {
        fill: url(#linear-gradient-20);
      }

      .cls-40 {
        fill: url(#linear-gradient-14);
      }

      .cls-41 {
        fill: url(#linear-gradient-2);
      }

      .cls-42 {
        fill: url(#linear-gradient-52);
      }

      .cls-43 {
        fill: url(#linear-gradient-45);
      }

      .cls-81, .cls-97 {
        letter-spacing: 0em;
      }

      .cls-44 {
        fill: url(#linear-gradient-7);
      }

      .cls-88 {
        letter-spacing: -.01em;
      }

      .cls-45 {
        fill: url(#linear-gradient-39);
      }

      .cls-46 {
        fill: url(#linear-gradient-3);
      }

      .cls-98 {
        letter-spacing: -.04em;
      }

      .cls-47 {
        fill: url(#linear-gradient-69);
      }

      .cls-48 {
        fill: url(#linear-gradient-9);
      }

      .cls-49 {
        fill: url(#linear-gradient-27);
      }

      .cls-99 {
        fill: none;
        stroke: #4f70f7;
        stroke-miterlimit: 10;
        stroke-width: 4px;
      }

      .cls-50 {
        fill: url(#linear-gradient-53);
      }

      .cls-83 {
        letter-spacing: -.02em;
      }

      .cls-51 {
        fill: url(#linear-gradient-65);
      }

      .cls-52 {
        fill: url(#linear-gradient-36);
      }

      .cls-53 {
        fill: url(#linear-gradient-48);
      }

      .cls-100, .cls-91 {
        letter-spacing: 0em;
      }

      .cls-54 {
        fill: url(#linear-gradient-49);
      }

      .cls-101 {
        letter-spacing: 0em;
      }

      .cls-55 {
        fill: url(#linear-gradient-8);
      }

      .cls-56 {
        fill: url(#linear-gradient-47);
      }

      .cls-57 {
        fill: url(#linear-gradient-24);
      }

      .cls-58 {
        fill: url(#linear-gradient-26);
      }

      .cls-59 {
        fill: url(#linear-gradient-61);
      }

      .cls-60 {
        fill: url(#linear-gradient-18);
      }

      .cls-102 {
        letter-spacing: -.06em;
      }

      .cls-103 {
        letter-spacing: 0em;
      }

      .cls-61 {
        fill: url(#linear-gradient-51);
      }

      .cls-62 {
        fill: url(#linear-gradient-30);
      }

      .cls-63 {
        fill: url(#linear-gradient-44);
      }

      .cls-64 {
        fill: url(#linear-gradient-68);
      }

      .cls-65 {
        fill: url(#linear-gradient-72);
      }

      .cls-66 {
        fill: url(#linear-gradient-29);
      }

      .cls-84, .cls-104 {
        letter-spacing: -.02em;
      }

      .cls-67 {
        fill: url(#linear-gradient-46);
      }

      .cls-68 {
        fill: url(#linear-gradient-64);
      }

      .cls-90, .cls-105 {
        letter-spacing: -.02em;
      }

      .cls-69 {
        fill: url(#linear-gradient-28);
      }

      .cls-70 {
        fill: url(#linear-gradient-56);
      }

      .cls-106 {
        letter-spacing: 0em;
      }

      .cls-71 {
        fill: url(#linear-gradient-10);
      }

      .cls-72 {
        fill: url(#linear-gradient-70);
      }

      .cls-73 {
        fill: url(#linear-gradient-4);
      }

      .cls-107 {
        letter-spacing: 0em;
      }

      .cls-108 {
        letter-spacing: -.02em;
      }

      .cls-75 {
        fill: url(#linear-gradient-37);
      }

      .cls-109 {
        letter-spacing: 0em;
      }

      .cls-110 {
        letter-spacing: -.02em;
      }

      .cls-111 {
        letter-spacing: -.03em;
      }

      .cls-112 {
        letter-spacing: -.02em;
      }

      .cls-113 {
        letter-spacing: 0em;
      }
    </style>
    <linearGradient id="linear-gradient" x1="274.63" y1="927.75" x2="481.2" y2="914.06" gradientUnits="userSpaceOnUse">
      <stop offset="0" stop-color="#7d7e7e"/>
      <stop offset=".19" stop-color="#656466"/>
      <stop offset=".99" stop-color="#343334"/>
    </linearGradient>
    <linearGradient id="linear-gradient-2" x1="485.03" y1="920.59" x2="480.82" y2="826.01" gradientUnits="userSpaceOnUse">
      <stop offset="0" stop-color="#565656"/>
      <stop offset=".15" stop-color="#747576"/>
      <stop offset=".36" stop-color="#999a9d"/>
      <stop offset=".47" stop-color="#a7a9ac"/>
      <stop offset="1" stop-color="#ded9d6"/>
    </linearGradient>
    <linearGradient id="linear-gradient-3" x1="556.25" y1="871.03" x2="598.55" y2="871.03" gradientUnits="userSpaceOnUse">
      <stop offset=".31" stop-color="#757175"/>
      <stop offset=".79" stop-color="#9f9ea0"/>
    </linearGradient>
    <linearGradient id="linear-gradient-4" x1="547.01" y1="878.03" x2="577.4" y2="878.03" gradientUnits="userSpaceOnUse">
      <stop offset=".03" stop-color="#feffff"/>
      <stop offset=".22" stop-color="#dee0e2"/>
      <stop offset=".42" stop-color="#c3c5c8"/>
      <stop offset=".54" stop-color="#b9bbbf"/>
      <stop offset="1" stop-color="#d4d6d7"/>
    </linearGradient>
    <linearGradient id="linear-gradient-5" x1="517.83" y1="897.11" x2="554.14" y2="897.11" gradientUnits="userSpaceOnUse">
      <stop offset=".34" stop-color="#565656"/>
      <stop offset=".99" stop-color="#b0afb2"/>
    </linearGradient>
    <linearGradient id="linear-gradient-6" x1="230.2" y1="894.95" x2="227.75" y2="825.1" gradientUnits="userSpaceOnUse">
      <stop offset="0" stop-color="#515151"/>
      <stop offset=".17" stop-color="#747576"/>
      <stop offset=".37" stop-color="#989a9d"/>
      <stop offset=".47" stop-color="#a7a9ac"/>
      <stop offset="1" stop-color="#ded9d6"/>
    </linearGradient>
    <linearGradient id="linear-gradient-7" x1="129.4" y1="865.38" x2="172.02" y2="865.38" gradientUnits="userSpaceOnUse">
      <stop offset=".31" stop-color="#878287"/>
      <stop offset="1" stop-color="#807b80"/>
    </linearGradient>
    <linearGradient id="linear-gradient-8" x1="150.63" y1="874.67" x2="184.86" y2="874.67" gradientUnits="userSpaceOnUse">
      <stop offset=".03" stop-color="#feffff"/>
      <stop offset=".13" stop-color="#f1f3f4"/>
      <stop offset=".39" stop-color="#d6d8dc"/>
      <stop offset=".54" stop-color="#cccfd3"/>
      <stop offset="1" stop-color="#e8eaeb"/>
    </linearGradient>
    <linearGradient id="linear-gradient-9" x1="177.08" y1="893.08" x2="206.27" y2="893.08" gradientUnits="userSpaceOnUse">
      <stop offset=".01" stop-color="#b0afb2"/>
      <stop offset=".63" stop-color="#545454"/>
    </linearGradient>
    <linearGradient id="linear-gradient-10" x1="119.76" y1="818.76" x2="279.97" y2="876.02" gradientUnits="userSpaceOnUse">
      <stop offset=".1" stop-color="#d1d1d1"/>
      <stop offset=".83" stop-color="#807b80"/>
    </linearGradient>
    <linearGradient id="linear-gradient-11" x1="123.57" y1="818.55" x2="283.11" y2="818.55" gradientUnits="userSpaceOnUse">
      <stop offset="0" stop-color="#bcbcbc"/>
      <stop offset=".33" stop-color="#757476"/>
      <stop offset=".88" stop-color="#444244"/>
    </linearGradient>
    <linearGradient id="linear-gradient-12" x1="239.52" y1="888.37" x2="283.95" y2="888.37" gradientUnits="userSpaceOnUse">
      <stop offset="0" stop-color="#4b484b"/>
      <stop offset=".33" stop-color="#504e51"/>
      <stop offset=".88" stop-color="#444244"/>
      <stop offset="1" stop-color="#6d6e70"/>
    </linearGradient>
    <linearGradient id="linear-gradient-13" x1="574.27" y1="780.29" x2="622.82" y2="780.29" gradientUnits="userSpaceOnUse">
      <stop offset=".31" stop-color="#878287"/>
      <stop offset=".79" stop-color="#b0afb2"/>
    </linearGradient>
    <linearGradient id="linear-gradient-14" x1="107.33" y1="771.76" x2="162" y2="771.76" gradientUnits="userSpaceOnUse">
      <stop offset=".31" stop-color="#878287"/>
      <stop offset="1" stop-color="#545454"/>
    </linearGradient>
    <linearGradient id="linear-gradient-15" x1="148.13" y1="794.39" x2="281.35" y2="794.39" gradientUnits="userSpaceOnUse">
      <stop offset="0" stop-color="#e5e2df"/>
      <stop offset="0" stop-color="#ded9d6"/>
      <stop offset=".07" stop-color="#cfcac8"/>
      <stop offset=".19" stop-color="#a8a4a6"/>
      <stop offset=".27" stop-color="#8b878d"/>
      <stop offset=".95" stop-color="#606060"/>
    </linearGradient>
    <linearGradient id="linear-gradient-16" x1="173.69" y1="797.62" x2="202.13" y2="797.62" gradientUnits="userSpaceOnUse">
      <stop offset=".01" stop-color="#b0afb2"/>
      <stop offset=".63" stop-color="#565656"/>
    </linearGradient>
    <linearGradient id="linear-gradient-17" x1="102.65" y1="709.25" x2="248.13" y2="766.72" gradientUnits="userSpaceOnUse">
      <stop offset=".1" stop-color="#d1d1d1"/>
      <stop offset=".88" stop-color="#807b80"/>
      <stop offset="1" stop-color="#a7a9ac"/>
    </linearGradient>
    <linearGradient id="linear-gradient-18" x1="450.17" y1="846.31" x2="606.73" y2="846.31" gradientUnits="userSpaceOnUse">
      <stop offset="0" stop-color="#a7a9ac"/>
      <stop offset=".12" stop-color="#807b80"/>
      <stop offset=".66" stop-color="#b0afb2"/>
    </linearGradient>
    <linearGradient id="linear-gradient-19" x1="103.53" y1="705.01" x2="169.62" y2="705.01" gradientUnits="userSpaceOnUse">
      <stop offset=".34" stop-color="#b0afb2"/>
      <stop offset=".88" stop-color="#807b80"/>
      <stop offset="1" stop-color="#a7a9ac"/>
    </linearGradient>
    <linearGradient id="linear-gradient-20" x1="121.71" y1="663.77" x2="126.41" y2="705.13" xlink:href="#linear-gradient-14"/>
    <linearGradient id="linear-gradient-21" x1="142.06" y1="678.21" x2="170.35" y2="678.21" gradientUnits="userSpaceOnUse">
      <stop offset="0" stop-color="#e5e2df"/>
      <stop offset="0" stop-color="#ded9d6"/>
      <stop offset="1" stop-color="#d1d3d4"/>
    </linearGradient>
    <linearGradient id="linear-gradient-22" x1="455.14" y1="831.9" x2="632.32" y2="831.9" gradientUnits="userSpaceOnUse">
      <stop offset=".12" stop-color="#444244"/>
      <stop offset=".67" stop-color="#757476"/>
      <stop offset="1" stop-color="#a0a0a0"/>
    </linearGradient>
    <linearGradient id="linear-gradient-23" x1="450.17" y1="886.74" x2="488.24" y2="886.74" xlink:href="#linear-gradient-12"/>
    <linearGradient id="linear-gradient-24" x1="450.17" y1="797.93" x2="585.49" y2="797.93" gradientUnits="userSpaceOnUse">
      <stop offset=".05" stop-color="#686868"/>
      <stop offset=".73" stop-color="#8b878d"/>
      <stop offset=".81" stop-color="#a8a4a6"/>
      <stop offset=".93" stop-color="#cfcac8"/>
      <stop offset="1" stop-color="#ded9d6"/>
      <stop offset="1" stop-color="#e5e2df"/>
    </linearGradient>
    <linearGradient id="linear-gradient-25" x1="528.45" y1="803.39" x2="558.34" y2="803.39" gradientUnits="userSpaceOnUse">
      <stop offset="0" stop-color="#4c4c4c"/>
      <stop offset=".99" stop-color="#b0afb2"/>
    </linearGradient>
    <linearGradient id="linear-gradient-26" x1="550.46" y1="704.19" x2="575.34" y2="790.16" xlink:href="#linear-gradient-17"/>
    <linearGradient id="linear-gradient-27" x1="498.77" y1="703.74" x2="620.31" y2="747.18" gradientTransform="translate(19.88 -26.13) rotate(2.07)" xlink:href="#linear-gradient-22"/>
    <linearGradient id="linear-gradient-28" x1="614.88" y1="671.32" x2="638.24" y2="671.32" gradientUnits="userSpaceOnUse">
      <stop offset=".31" stop-color="#878287"/>
      <stop offset=".79" stop-color="#b0afb2"/>
      <stop offset="1" stop-color="#807b80"/>
    </linearGradient>
    <linearGradient id="linear-gradient-29" x1="572.12" y1="681.08" x2="622.82" y2="681.08" gradientUnits="userSpaceOnUse">
      <stop offset=".27" stop-color="#545454"/>
      <stop offset=".79" stop-color="#b0afb2"/>
      <stop offset="1" stop-color="#807b80"/>
    </linearGradient>
    <linearGradient id="linear-gradient-30" x1="176.76" y1="702.66" x2="610.22" y2="673.93" xlink:href="#linear-gradient"/>
    <linearGradient id="linear-gradient-31" x1="198.1" y1="734.24" x2="246.36" y2="734.24" xlink:href="#linear-gradient-19"/>
    <linearGradient id="linear-gradient-32" x1="89.77" y1="681.54" x2="646.86" y2="681.54" gradientUnits="userSpaceOnUse">
      <stop offset="0" stop-color="#e5e2df"/>
      <stop offset="0" stop-color="#ded9d6"/>
      <stop offset=".11" stop-color="#cfcac9"/>
      <stop offset=".11" stop-color="#cec9c8"/>
      <stop offset=".14" stop-color="#bcb7b8"/>
      <stop offset=".2" stop-color="#8d898f"/>
      <stop offset=".2" stop-color="#8b878d"/>
      <stop offset=".27" stop-color="#494949"/>
      <stop offset=".39" stop-color="#959498"/>
      <stop offset=".42" stop-color="#545454"/>
      <stop offset=".49" stop-color="#a7a9ac"/>
      <stop offset=".6" stop-color="#707070"/>
      <stop offset=".72" stop-color="#494949"/>
      <stop offset=".82" stop-color="#939494"/>
      <stop offset="1" stop-color="#d1d3d4"/>
    </linearGradient>
    <linearGradient id="linear-gradient-33" x1="238.77" y1="730.98" x2="493.51" y2="730.98" xlink:href="#linear-gradient-12"/>
    <linearGradient id="linear-gradient-34" x1="367.5" y1="719.22" x2="360.61" y2="949.06" gradientUnits="userSpaceOnUse">
      <stop offset="0" stop-color="#999998"/>
      <stop offset=".4" stop-color="#d6cdc1"/>
      <stop offset=".6" stop-color="#f0ebd8"/>
      <stop offset=".75" stop-color="#fffde5"/>
      <stop offset=".99" stop-color="#dee3e6"/>
    </linearGradient>
    <linearGradient id="linear-gradient-35" x1="252.21" y1="735.43" x2="287.29" y2="735.43" gradientUnits="userSpaceOnUse">
      <stop offset=".03" stop-color="#feffff"/>
      <stop offset=".34" stop-color="#e5e7ea"/>
      <stop offset=".54" stop-color="#dbdee2"/>
      <stop offset="1" stop-color="#eff1f2"/>
    </linearGradient>
    <linearGradient id="linear-gradient-36" x1="445.99" x2="481.07" xlink:href="#linear-gradient-35"/>
    <linearGradient id="linear-gradient-37" x1="256.38" y1="735.43" x2="283.11" y2="735.43" gradientUnits="userSpaceOnUse">
      <stop offset=".09" stop-color="#4b484b"/>
      <stop offset=".33" stop-color="#504e51"/>
      <stop offset=".88" stop-color="#444244"/>
    </linearGradient>
    <linearGradient id="linear-gradient-38" x1="441.81" y1="921.69" x2="476.89" y2="921.69" xlink:href="#linear-gradient-35"/>
    <linearGradient id="linear-gradient-39" x1="450.17" x2="476.89" xlink:href="#linear-gradient-37"/>
    <linearGradient id="linear-gradient-40" x1="445.99" y1="921.69" x2="472.72" y2="921.69" xlink:href="#linear-gradient-37"/>
    <linearGradient id="linear-gradient-41" x1="253.04" y1="919.19" x2="288.12" y2="919.19" xlink:href="#linear-gradient-35"/>
    <linearGradient id="linear-gradient-42" x1="257.22" y1="919.19" x2="283.95" y2="919.19" xlink:href="#linear-gradient-37"/>
    <linearGradient id="linear-gradient-43" x1="81.92" y1="625.66" x2="648.1" y2="628.07" gradientUnits="userSpaceOnUse">
      <stop offset="0" stop-color="#e5e2df"/>
      <stop offset="0" stop-color="#ded9d6"/>
      <stop offset=".11" stop-color="#cfcac9"/>
      <stop offset=".11" stop-color="#cec9c8"/>
      <stop offset=".14" stop-color="#bcb7b8"/>
      <stop offset=".2" stop-color="#8d898f"/>
      <stop offset=".2" stop-color="#8b878d"/>
      <stop offset=".39" stop-color="#959498"/>
      <stop offset=".49" stop-color="#a7a9ac"/>
      <stop offset=".6" stop-color="#707070"/>
      <stop offset=".82" stop-color="#939494"/>
      <stop offset="1" stop-color="#d1d3d4"/>
    </linearGradient>
    <linearGradient id="linear-gradient-44" x1="558.53" y1="585.91" x2="643.54" y2="585.91" xlink:href="#linear-gradient-8"/>
    <linearGradient id="linear-gradient-45" x1="569.19" y1="578.81" x2="640.8" y2="578.81" gradientUnits="userSpaceOnUse">
      <stop offset="0" stop-color="#c8c9ca"/>
      <stop offset=".05" stop-color="#878287"/>
      <stop offset=".15" stop-color="#b0afb2"/>
      <stop offset=".33" stop-color="#8b878d"/>
      <stop offset=".88" stop-color="#807b80"/>
      <stop offset="1" stop-color="#a7a9ac"/>
    </linearGradient>
    <linearGradient id="linear-gradient-46" x1="605.94" y1="560.86" x2="633.51" y2="560.86" gradientUnits="userSpaceOnUse">
      <stop offset="0" stop-color="#8d8e8e"/>
      <stop offset=".19" stop-color="#757476"/>
      <stop offset=".88" stop-color="#444244"/>
    </linearGradient>
    <linearGradient id="linear-gradient-47" x1="570.06" y1="560.24" x2="613.09" y2="560.24" xlink:href="#linear-gradient-37"/>
    <linearGradient id="linear-gradient-48" x1="570.06" y1="546.16" x2="633.51" y2="546.16" xlink:href="#linear-gradient-8"/>
    <linearGradient id="linear-gradient-49" x1="511.93" y1="577.74" x2="575.87" y2="577.74" xlink:href="#linear-gradient-37"/>
    <linearGradient id="linear-gradient-50" x1="467.29" y1="545.45" x2="527.43" y2="545.45" gradientUnits="userSpaceOnUse">
      <stop offset="0" stop-color="#8d8e8e"/>
      <stop offset=".09" stop-color="#4b484b"/>
      <stop offset=".19" stop-color="#757476"/>
      <stop offset=".33" stop-color="#504e51"/>
      <stop offset=".88" stop-color="#444244"/>
      <stop offset="1" stop-color="#6d6e70"/>
    </linearGradient>
    <linearGradient id="linear-gradient-51" x1="93.09" y1="608.79" x2="644.37" y2="608.79" xlink:href="#linear-gradient-45"/>
    <linearGradient id="linear-gradient-52" x1="556.66" y1="564.89" x2="581.72" y2="564.89" xlink:href="#linear-gradient-46"/>
    <linearGradient id="linear-gradient-53" x1="519.08" y1="563.78" x2="556.66" y2="563.78" xlink:href="#linear-gradient-37"/>
    <linearGradient id="linear-gradient-54" x1="517.02" y1="554.27" x2="581.72" y2="554.27" xlink:href="#linear-gradient-8"/>
    <linearGradient id="linear-gradient-55" x1="32.14" y1="579.85" x2="522.42" y2="579.85" xlink:href="#linear-gradient-45"/>
    <linearGradient id="linear-gradient-56" x1="32.14" y1="540.37" x2="527.43" y2="540.37" xlink:href="#linear-gradient-8"/>
    <linearGradient id="linear-gradient-57" x1="406.13" y1="530.91" x2="452.08" y2="530.91" gradientUnits="userSpaceOnUse">
      <stop offset=".03" stop-color="#feffff"/>
      <stop offset=".26" stop-color="#f2f4f7"/>
      <stop offset=".54" stop-color="#e8ecf0"/>
      <stop offset="1" stop-color="#f5f7f8"/>
    </linearGradient>
    <linearGradient id="linear-gradient-58" x1="142.37" y1="516.59" x2="433.88" y2="516.59" xlink:href="#linear-gradient-8"/>
    <linearGradient id="linear-gradient-59" x1="142.06" y1="531.65" x2="417.35" y2="531.65" xlink:href="#linear-gradient-45"/>
    <linearGradient id="linear-gradient-60" x1="249.95" y1="531.65" x2="309.46" y2="531.65" xlink:href="#linear-gradient-8"/>
    <linearGradient id="linear-gradient-61" x1="313.92" y1="432.91" x2="328.83" y2="432.91" gradientUnits="userSpaceOnUse">
      <stop offset="0" stop-color="#8d8e8e"/>
      <stop offset=".33" stop-color="#504e51"/>
      <stop offset=".88" stop-color="#444244"/>
      <stop offset="1" stop-color="#6d6e70"/>
    </linearGradient>
    <linearGradient id="linear-gradient-62" x1="240.24" y1="432.91" x2="304.41" y2="432.91" xlink:href="#linear-gradient-50"/>
    <linearGradient id="linear-gradient-63" x1="252.13" y1="355.79" x2="217.08" y2="501.16" xlink:href="#linear-gradient-8"/>
    <linearGradient id="linear-gradient-64" x1="244.97" y1="352.92" x2="264.63" y2="352.92" xlink:href="#linear-gradient-8"/>
    <linearGradient id="linear-gradient-65" x1="267.11" y1="359.4" x2="232.06" y2="504.77" xlink:href="#linear-gradient-8"/>
    <linearGradient id="linear-gradient-66" x1="283.51" y1="363.35" x2="248.46" y2="508.72" xlink:href="#linear-gradient-8"/>
    <linearGradient id="linear-gradient-67" x1="300.85" y1="346.92" x2="267.52" y2="504.93" xlink:href="#linear-gradient-45"/>
    <linearGradient id="linear-gradient-68" x1="314.12" y1="349.72" x2="280.8" y2="507.73" xlink:href="#linear-gradient-45"/>
    <linearGradient id="linear-gradient-69" x1="328.65" y1="352.79" x2="295.33" y2="510.8" xlink:href="#linear-gradient-45"/>
    <linearGradient id="linear-gradient-70" x1="283.02" y1="352.92" x2="304.47" y2="352.92" xlink:href="#linear-gradient-8"/>
    <linearGradient id="linear-gradient-71" x1="304.41" y1="432.91" x2="313.92" y2="432.91" gradientUnits="userSpaceOnUse">
      <stop offset="0" stop-color="#4b484b"/>
      <stop offset=".65" stop-color="#757476"/>
    </linearGradient>
    <linearGradient id="linear-gradient-72" x1="320.28" y1="834.83" x2="411.33" y2="834.83" gradientUnits="userSpaceOnUse">
      <stop offset=".03" stop-color="#354ba6"/>
      <stop offset=".18" stop-color="#293f90"/>
      <stop offset=".41" stop-color="#1b2f75"/>
      <stop offset=".54" stop-color="#162a6b"/>
    </linearGradient>
    <linearGradient id="linear-gradient-73" x1="320.56" y1="829.81" x2="411.05" y2="829.81" gradientUnits="userSpaceOnUse">
      <stop offset=".03" stop-color="#425ed0"/>
      <stop offset=".18" stop-color="#3551ba"/>
      <stop offset=".41" stop-color="#24419f"/>
      <stop offset=".54" stop-color="#1e3b95"/>
    </linearGradient>
  </defs>
  <path class="cls-25" d="m564.85,0h435.15v571h-410.04c-13.86,0-25.11-11.25-25.11-25.11V0h0Z"/>
  <g>
    <path class="cls-6" d="m298.7,935.06s70.86,12.95,131,0c-18.38-37.59-53.09-20.73-53.09-20.73l-74.71-8.5-3.2,29.23Z"/>
    <path class="cls-41" d="m517.83,924.47l-35.1,8.08-10-33.83-36.73-28.4,81.84-2.93,10.62,6.52s9.43,46.65-10.62,50.56Z"/>
    <path class="cls-46" d="m598.55,847.94s-10.56,45.36-42.3,46.2c9.19-18.38,9.98-38.42,9.98-38.42l32.32-7.77Z"/>
    <path class="cls-73" d="m577.4,861.92s-2.66,24.69-26.11,32.21c-5.12-15.87-4.21-31.72-4.21-31.72l30.32-.49Z"/>
    <path class="cls-16" d="m554.07,869.74s1.25,23.18-7.06,41.33c-8.31,18.15-19.99,21.19-29.19,13.41,4.17-15.57,8.35-18.64,7.51-58.74,15.87.84,28.73,4.01,28.73,4.01Z"/>
    <path class="cls-11" d="m207.1,917.08s17.54,10.86,37.59,12.53c3.34-20.05,9.19-48.86,9.19-48.86l10.5-10.02-14.99-7.91h-46.73l-8.17,12.25,12.62,42.02Z"/>
    <path class="cls-44" d="m129.4,839.98s1.69,43.29,42.62,50.81c0-25.06-21.31-41.91-21.31-41.91l-21.31-8.9Z"/>
    <path class="cls-55" d="m150.71,855.08s-2.91,21.51,27.16,40.72c9.19-10.86,6.68-14.2,6.68-14.2l-1.67-23.39s-29.26-7.95-32.17-3.14Z"/>
    <path class="cls-48" d="m178.09,865.12s-2.28,17.32,0,33.61c2.28,16.29,12.3,32.16,28.17,17.96-1.67-14.2-5.01-28.4-2.92-46.36-10.86-10.02-25.25-5.21-25.25-5.21Z"/>
    <path class="cls-71" d="m123.57,808.1s-5.85,18.38,4.18,30.07,32.58,25.06,65.99,30.07c33.41,5.01,86.03,8.35,86.03,8.35l-1.91-27.57-79.76-6.68-74.53-34.25Z"/>
    <path class="cls-14" d="m123.57,808.1s13.36,26.73,62.65,35.92c49.28,9.19,96.89,4.61,96.89,4.61l-16.05-18.81-100.05-25.06-24.95-17.42-18.49,20.76Z"/>
    <path class="cls-2" d="m239.52,914.33l3.26-16.19c1.98-9.86,7.83-18.44,16.1-24.17,3.99-2.76,8.26-6.54,11.7-11.56,10.86,11.65,13.36,25.96,13.36,25.96l-26.73,7.75-17.7,18.21Z"/>
    <path class="cls-26" d="m578.49,748.79l44.33-8.05s-6.89,58.19-17.52,77.8c-17.92,4.99-31.03-6.28-31.03-6.28l4.21-63.48Z"/>
    <path class="cls-40" d="m107.33,735.43l16.25,72.67s11.69-5.85,25.06-10.02c0-16.71,13.36-10.86,13.36-10.86l-5.79-38.42-48.88-13.36Z"/>
    <path class="cls-13" d="m148.13,750.78v57.32s33.91,36.77,122.45,31.33c14.2-30.93,10.27-50.13,10.27-50.13l-21.76-29.61-49.87-10.91-61.09,1.98Z"/>
    <path class="cls-30" d="m173.69,755.41s.84,75.24,2.51,81.08c1.67,5.85,21.69,7.52,24.63,0s0-80.32,0-80.32c0,0-17.95-5-27.14-.77Z"/>
    <path class="cls-3" d="m103.53,697.01s-18.29,16.71,3.8,38.42c22.09,21.72,155.74,29.23,155.74,29.23l-21.93-27.38-57.58-6.31-59.37-23.53-20.66-10.44Z"/>
    <path class="cls-60" d="m603.02,812.27s8.35,16.71,0,30.07c-8.35,13.36-32.58,25.89-63.48,30.07-30.91,4.18-58.97,7.94-58.97,7.94l-30.41-10.02,9.19-20.56,75.08-6.88,40.99-11.4,27.6-19.21Z"/>
    <path class="cls-4" d="m157.82,727.91s-54.29-11.69-54.29-30.91c21.72-10.02,42.49-14.89,42.49-14.89l23.61,22.9-11.8,22.9Z"/>
    <path class="cls-39" d="m103.53,697.01s26.11,1.04,38.53-1.99v-52.31l-41.63-7.52s-.25,59.3,3.09,61.81Z"/>
    <polygon class="cls-10" points="142.06 695.02 170.35 713.71 164.5 643.55 142.06 642.71 142.06 695.02"/>
    <path class="cls-31" d="m456.85,855.71s60.98,0,95.22-7.52c34.25-7.52,50.95-35.92,50.95-35.92l-22.24-4.18-23.37,10.45-102.28,13.35,1.71,23.81Z"/>
    <path class="cls-27" d="m462.8,859.15l13.85,16.52c2.57,3.07,4.38,6.71,5.26,10.62l6.33,28.03-9.35-6-19.54-19.1-9.19-14.17,12.64-15.9Z"/>
    <path class="cls-57" d="m585.49,752.97l-3.35,63.48s-17.61,16.99-66.86,23.53c-49.25,6.54-65.12,0-65.12,0l7.28-69.05,44.05-17.96h84Z"/>
    <path class="cls-28" d="m530.66,763.13l-2.21,80.3s27.8,10.81,27.8-3.49,2.09-79.23,2.09-79.23c0,0-26.52-4.12-27.67,2.42Z"/>
    <path class="cls-58" d="m484.71,764.35s74.63,1.15,112.76-11.38,48.99-35.08,34.79-47.61c-14.2-12.53-31.22,2.09-31.22,2.09l-39.56-2.85-14.02,30.83-42.9-17.54-21.82,10.86s-5.85,28.4,1.67,34.25"/>
    <path class="cls-49" d="m492.68,739.04s123.75-2.1,134.28-31.66c-18.79-20.43-90.24-11.05-90.24-11.05l-53.53,23.14,9.48,19.57Z"/>
    <polygon class="cls-69" points="638.24 635.2 634.31 707.45 614.88 707.45 617.22 640.21 638.24 635.2"/>
    <path class="cls-66" d="m622.82,647.55s-.59,66.16-5.6,68.67c-5.01,2.51-45.1-2.51-45.1-2.51v-66.16s50.45-5.19,50.7,0Z"/>
    <rect class="cls-62" x="228.4" y="645.64" width="268.96" height="89.37"/>
    <path class="cls-17" d="m241.78,727.2s-44.31.84-43.67,5.37l.64,4.53,47.61,4.18-4.58-14.08Z"/>
    <path class="cls-36" d="m92.25,615.57s-7.94,9.61,4.59,23.81v66.82l6.68-9.19v-55.96s27.56,10.86,54.29,10.02v76.85s5.85,11.69,19.21,15.03c21.72-6.68,64.75-15.75,64.75-15.75l6.68-22.2v-49.43h67.22v93.23h99.62v-91.04h69.94v70.16s33.41,3.34,45.94,10.02c12.53,6.68,25.48,9.19,25.48,9.19,0,0,18.91-3.94,19.27-19.93.36-15.99,3.7-73.62,3.7-73.62,0,0,43.81-.56,61.16-14.48,5.47-4.45,9-21.05,2.73-23.75-6.26-2.7-34.4.65-34.4.65l-219.11,10.01-94.39-5.85-96.06,1.67-107.33-6.26Z"/>
    <path class="cls-5" d="m238.77,734.17s.91-20.97,13.44-33.66c12.53-12.69,38.42-10.88,49.7,4.09,11.28,14.96,21.3,29.16,39.68,26.66s39.26-1.67,50.12,0c10.86,1.67,23.39-4.18,29.23-15.03,5.85-10.86,16.83-25.75,39.32-24.15,22.49,1.6,33.94,26.64,33.23,40.01-.71,13.37-14.08,22.56-14.08,22.56l-26.73,11.69s-160.37.84-162.88,3.34c-2.51,2.51-31.89-9.21-51.03-35.51Z"/>
    <path class="cls-21" d="m467.55,889.16c-7.04-6.92-9.33-17.32-5.93-26.59,3.67-9.99,5.67-20.74,5.67-31.93,0-9.43-1.42-18.55-4.07-27.17-2.84-9.24-.13-19.29,7-25.83l14.49-13.3c12.75-11.7,13.6-31.51,1.9-44.26-11.7-12.75-31.51-13.6-44.26-1.9l-17.5,16.06c-6.72,6.17-16.28,8.34-24.93,5.42-10.54-3.56-21.89-5.5-33.71-5.5s-22.17,1.77-32.31,5.04c-8.83,2.84-18.51.49-25.13-6.01l-17.09-16.78c-12.34-12.12-32.17-11.95-44.29.4-12.12,12.34-11.95,32.17.4,44.29l15.64,15.36c6.82,6.7,9.11,16.66,6.17,25.76-2.9,8.98-4.46,18.52-4.46,28.41s1.41,18.49,4.04,27.08c2.83,9.24.12,19.28-7,25.82l-12.79,11.73c-12.75,11.7-13.6,31.51-1.9,44.26,6.18,6.73,14.62,10.14,23.09,10.14,7.57,0,15.16-2.73,21.17-8.25l15.7-14.41c6.74-6.18,16.32-8.36,24.98-5.42,10.56,3.58,21.93,5.53,33.78,5.53,9.94,0,19.54-1.37,28.62-3.92,8.71-2.45,18.06.1,24.52,6.44l17.21,16.91c6.1,5.99,14.02,8.98,21.95,8.98s16.22-3.13,22.35-9.37c12.12-12.34,11.95-32.17-.4-44.29l-12.92-12.69Z"/>
    <circle class="cls-34" cx="269.75" cy="735.43" r="17.54"/>
    <circle class="cls-52" cx="463.53" cy="735.43" r="17.54"/>
    <circle class="cls-75" cx="269.75" cy="735.43" r="13.36"/>
    <circle class="cls-1" cx="459.35" cy="921.69" r="17.54"/>
    <circle class="cls-45" cx="463.53" cy="735.43" r="13.36"/>
    <circle class="cls-23" cx="459.35" cy="921.69" r="13.36"/>
    <circle class="cls-22" cx="270.58" cy="919.19" r="17.54"/>
    <circle class="cls-12" cx="270.58" cy="919.19" r="13.36"/>
    <path class="cls-29" d="m93.09,615.57s-7.52,13.36,3.76,23.81c13.36,4.18,59.76,20.27,151.62,16.19,66.79.19,187.53,2.18,187.53,2.18,0,0,127.02-3.4,155.58-4.83s50.29-10.55,52.79-18.94c2.51-8.39,0-18.64,0-18.64l-167.47,6.69-328.76-26.42s-59.22-4.27-55.05,19.95Z"/>
    <g>
      <path class="cls-63" d="m560,592.18l36.75,11.69s47.61-8.35,46.78-15.87c-.84-7.52-11.42-9.19-11.42-9.19l-44.55-10.86s-36.75,13.36-27.56,24.22Z"/>
      <path class="cls-43" d="m575.87,577.74s12.53-1.43,14.2-4.77c-.84,4.18,0,3.34,0,3.34h50.72v5.71s-9.79,2.64-29.01,2.64-22.55-2.51-22.55-2.51c0,0-10.02-.62-20.05.63,4.18-4.39,6.68-5.04,6.68-5.04Z"/>
      <polygon class="cls-67" points="609.29 547.03 622.65 544.57 630.2 545.43 633.51 547.03 633.51 565.07 627.77 565.07 627.77 577.14 607.22 577.14 605.94 558.51 609.29 547.03"/>
      <polygon class="cls-56" points="609.29 547.07 609.29 566.44 613.09 566.44 613.09 576.75 578.38 576.75 578.38 562.94 570.06 550.61 570.06 546.16 572.53 544.57 585.06 543.73 609.29 547.07"/>
      <path class="cls-53" d="m570.06,546.24s4.26-3.9,5.87,3.06c4.89-3.61,19.14-5.55,30.01-.55,4.19,2.49,6.69.83,9.19-.84s10.02-4.18,18.38-.84c-4.18-5.01-22.52-4.64-31.72-4.64s-8.74,0-8.74,0c0,0-17.94-1.21-22.98,3.8Z"/>
      <path class="cls-54" d="m575.87,570.46v17.24s-21.72,2.8-50.95.3c-29.23-2.51,0-21.56,0-21.56l50.95,4.02Z"/>
      <polygon class="cls-35" points="527.43 541.23 527.43 556.35 512.98 548.79 467.29 543.73 475.64 534.54 527.43 541.23"/>
      <path class="cls-61" d="m519.91,582.38h31.32v6.66h41.18v9.06s51.96-3.42,51.96-10.1v27.34s-32.58,21.11-111.93,16.93c-79.35-4.18-101.07-2.51-129.47,1.67-28.4,4.18-80.19-3.34-111.09-4.18-30.91-.84-65.99,2.51-88.54,2.51s-83.53-5.01-110.26-16.71v-15.93l319.08-6.62h81.02l26.73-10.63Z"/>
      <path class="cls-42" d="m581.72,557.93v15.66l-25.06,2.72v-18.38s15.87-10.02,25.06,0Z"/>
      <polygon class="cls-50" points="556.66 576.31 519.08 572.13 520.26 554.27 536.62 551.25 556.66 554.27 556.66 576.31"/>
      <path class="cls-32" d="m519.91,551.25s61.81-8.35,61.81,6.68c-7.52-3.34-15.03-2.51-24.22,1.67-6.68-3.34-19.21-8.35-35.92-2.51-9.19-.84-1.67-5.85-1.67-5.85Z"/>
      <path class="cls-33" d="m32.14,543.71l3.34,55.89c.45,7.57,6.7,13.49,14.29,13.53,40.07.18,157.35.63,184.35-.06,32.7-.84,178.23-.09,201.1.37s84.42,7.79,85.8-4.64c1.39-12.43,1.39-60.04,1.39-60.04l-72.64.19-172.5-3.49-187.96-.2-57.18-1.53Z"/>
      <path class="cls-70" d="m452.08,528.39s70.34,4.48,75.35,12.84c-12.53-.84-42.22,0-42.22,0,0,0,44.72.84,37.2,7.52-7.52,6.68-208.16,2.05-239.39,2.05s-230.62-1.54-248.28-5.55c-17.66-4.02,56.8-14.63,164.91-14.33s252.43-2.52,252.43-2.52Z"/>
      <path class="cls-9" d="m433.88,516.59s18.2-.42,18.2,4.18v18.1s-9.5,6.22-34.73,6.38,0-27.2,0-27.2c0,0,5.67-.21,16.53-1.46Z"/>
      <ellipse class="cls-19" cx="288.12" cy="516.59" rx="145.76" ry="4.18"/>
      <rect class="cls-38" x="142.06" y="518.05" width="275.29" height="27.2"/>
      <rect class="cls-37" x="249.95" y="518.05" width="59.51" height="27.2"/>
      <path class="cls-59" d="m324.07,378.62c0,2.62,2.13,4.75,4.76,4.75v95.42c-2.63,0-4.76,2.13-4.76,4.75s2.13,4.76,4.76,4.76v29.74h-14.91v-170.27h4.85l10.06,10.06v16.02c-2.63,0-4.76,2.13-4.76,4.76Z"/>
      <path class="cls-7" d="m304.41,347.78v170.27h-64.17v-29.79c2.04-.28,3.62-2.29,3.62-4.72s-1.58-4.43-3.62-4.71v-95.51c2.04-.28,3.62-2.29,3.62-4.71s-1.58-4.44-3.62-4.72v-15.97l8.85-10.15h55.32Z"/>
      <rect class="cls-20" x="244.97" y="358.06" width="9.96" height="13.53"/>
      <polygon class="cls-68" points="264.63 347.78 254.93 358.06 244.97 358.06 250.4 347.78 264.63 347.78"/>
      <rect class="cls-51" x="244.97" y="381.04" width="9.96" height="99.08"/>
      <rect class="cls-24" x="244.97" y="487.02" width="9.96" height="31.03"/>
      <rect class="cls-8" x="289.67" y="358.06" width="14.81" height="13.53"/>
      <rect class="cls-64" x="289.67" y="381.04" width="14.81" height="99.08"/>
      <rect class="cls-47" x="289.67" y="487.02" width="14.81" height="31.03"/>
      <polygon class="cls-72" points="289.67 358.06 283.02 347.78 302.69 347.78 304.47 358.06 289.67 358.06"/>
      <rect class="cls-18" x="304.41" y="347.78" width="9.51" height="170.27"/>
    </g>
    <circle class="cls-74" cx="365.8" cy="834.83" r="63.9"/>
    <path class="cls-65" d="m411.33,834.83c0,25.14-20.38,45.52-45.52,45.52s-45.52-20.38-45.52-45.52c0-1.7.09-3.37.28-5.01,2.5-22.79,21.8-40.51,45.25-40.51s42.75,17.72,45.25,40.51c.18,1.65.28,3.32.28,5.01Z"/>
    <path class="cls-15" d="m411.05,829.81c-2.5,22.79-21.8,40.51-45.25,40.51s-42.75-17.72-45.25-40.51c2.5-22.79,21.8-40.51,45.25-40.51s42.75,17.72,45.25,40.51Z"/>
  </g>
  <text class="cls-79" transform="translate(629.93 51.76)"><tspan class="cls-86" x="0" y="0">М</tspan><tspan class="cls-87" x="17.33" y="0">о</tspan><tspan class="cls-86" x="28.96" y="0">д</tspan><tspan class="cls-89" x="41.58" y="0">е</tspan><tspan class="cls-86" x="53.06" y="0">ль: </tspan><tspan class="cls-80" x="85.75" y="0">НШ </tspan><tspan class="cls-82" x="124.94" y="0">3</tspan><tspan class="cls-80" x="135" y="0">2</tspan><tspan class="cls-88" x="0" y="43.2">Р</tspan><tspan class="cls-86" x="12.76" y="43.2">абочий о</tspan><tspan class="cls-90" x="101.36" y="43.2">б</tspan><tspan class="cls-86" x="113.11" y="43.2">ъем: </tspan><tspan class="cls-82" x="161.44" y="43.2">3</tspan><tspan class="cls-80" x="171.5" y="43.2">2 см³</tspan><tspan class="cls-86"><tspan x="0" y="86.4">Номинальное давление (Р1): </tspan></tspan><tspan class="cls-80"><tspan class="cls-113" x="0" y="108">2</tspan><tspan x="10.15" y="108">00 </tspan><tspan class="cls-76" x="38.7" y="108">б</tspan><tspan x="50.51" y="108">ар</tspan></tspan><tspan class="cls-86"><tspan x="0" y="151.2">Ма</tspan><tspan class="cls-96" x="28.21" y="151.2">к</tspan><tspan x="39.46" y="151.2">симальное </tspan></tspan><tspan class="cls-86"><tspan x="0" y="172.8">к</tspan><tspan class="cls-100" x="11.56" y="172.8">р</tspan><tspan x="23.89" y="172.8">ат</tspan><tspan class="cls-96" x="44.39" y="172.8">к</tspan><tspan x="55.64" y="172.8">овременное давление (</tspan><tspan class="cls-92" x="288.95" y="172.8">Р</tspan><tspan x="301.9" y="172.8">2): </tspan></tspan><tspan class="cls-80"><tspan x="0" y="194.4">250 </tspan><tspan class="cls-76" x="37.04" y="194.4">б</tspan><tspan x="48.85" y="194.4">ар</tspan></tspan><tspan class="cls-86"><tspan x="0" y="237.6">Ма</tspan><tspan class="cls-96" x="28.21" y="237.6">к</tspan><tspan x="39.46" y="237.6">симальное пи</tspan><tspan class="cls-110" x="177.35" y="237.6">к</tspan><tspan x="188.6" y="237.6">овое </tspan></tspan><tspan class="cls-86" x="0" y="259.2">давление (</tspan><tspan class="cls-88" x="106.61" y="259.2">Р</tspan><tspan class="cls-86" x="119.38" y="259.2">3): </tspan><tspan class="cls-80" x="146.29" y="259.2">280 </tspan><tspan class="cls-77" x="184.62" y="259.2">б</tspan><tspan class="cls-80" x="196.43" y="259.2">ар</tspan><tspan class="cls-86"><tspan x="0" y="302.4">Ма</tspan><tspan class="cls-96" x="28.21" y="302.4">к</tspan><tspan x="39.46" y="302.4">симальная ча</tspan><tspan class="cls-103" x="173.36" y="302.4">с</tspan><tspan class="cls-108" x="183.98" y="302.4">т</tspan><tspan class="cls-105" x="193.21" y="302.4">о</tspan><tspan x="204.62" y="302.4">та </tspan></tspan><tspan class="cls-86" x="0" y="324">в</tspan><tspan class="cls-91" x="11.2" y="324">р</tspan><tspan class="cls-86" x="23.53" y="324">ащения (nmax): </tspan><tspan class="cls-80" x="180.93" y="324">3000 обор</tspan><tspan class="cls-84" x="278.66" y="324">о</tspan><tspan class="cls-83" x="289.74" y="324">т</tspan><tspan class="cls-80" x="297.82" y="324">ов </tspan><tspan class="cls-80"><tspan x="0" y="345.6">в мин</tspan><tspan class="cls-97" x="54.41" y="345.6">ут</tspan><tspan x="73.04" y="345.6">у</tspan></tspan><tspan class="cls-86"><tspan x="0" y="388.8">Минимальная ча</tspan><tspan class="cls-103" x="165.85" y="388.8">с</tspan><tspan class="cls-108" x="176.47" y="388.8">т</tspan><tspan class="cls-105" x="185.71" y="388.8">о</tspan><tspan x="197.12" y="388.8">та в</tspan><tspan class="cls-95" x="233.91" y="388.8">р</tspan><tspan x="246.24" y="388.8">ащения </tspan></tspan><tspan class="cls-86" x="0" y="410.4">(nmin): </tspan><tspan class="cls-80" x="71.85" y="410.4">500 обор</tspan><tspan class="cls-84" x="157.69" y="410.4">о</tspan><tspan class="cls-83" x="168.78" y="410.4">т</tspan><tspan class="cls-80" x="176.86" y="410.4">ов в мин</tspan><tspan class="cls-81" x="258.38" y="410.4">ут</tspan><tspan class="cls-80" x="277.01" y="410.4">у</tspan><tspan class="cls-86"><tspan class="cls-102" x="0" y="453.6">Т</tspan><tspan x="10.48" y="453.6">емпе</tspan><tspan class="cls-95" x="60.62" y="453.6">р</tspan><tspan x="72.96" y="453.6">а</tspan><tspan class="cls-107" x="83.83" y="453.6">т</tspan><tspan x="93.55" y="453.6">у</tspan><tspan class="cls-100" x="104.6" y="453.6">р</tspan><tspan x="116.93" y="453.6">а </tspan><tspan class="cls-100" x="132.89" y="453.6">р</tspan><tspan x="145.22" y="453.6">абочей жид</tspan><tspan class="cls-96" x="262.67" y="453.6">к</tspan><tspan x="273.92" y="453.6">о</tspan><tspan class="cls-103" x="285.7" y="453.6">с</tspan><tspan x="296.32" y="453.6">ти: </tspan></tspan><tspan class="cls-80"><tspan class="cls-104" x="0" y="475.2">о</tspan><tspan x="11.09" y="475.2">т </tspan><tspan class="cls-110" x="24.32" y="475.2">+</tspan><tspan x="34.36" y="475.2">15 до +80 </tspan><tspan class="cls-106" x="122.11" y="475.2">°</tspan><tspan x="129.83" y="475.2">C</tspan></tspan></text>
  <text class="cls-93" transform="translate(86.65 106.39)"><tspan class="cls-98" x="0" y="0">Х</tspan><tspan x="26.21" y="0">А</tspan><tspan class="cls-94" x="55.96" y="0">Р</tspan><tspan class="cls-85" x="80.39" y="0">А</tspan><tspan class="cls-111" x="110.14" y="0">К</tspan><tspan class="cls-78" x="136.15" y="0">ТЕ</tspan><tspan class="cls-109" x="183.47" y="0">Р</tspan><tspan x="209.12" y="0">И</tspan><tspan class="cls-101" x="237.79" y="0">С</tspan><tspan x="263.9" y="0">ТИ</tspan><tspan class="cls-112" x="316.15" y="0">К</tspan><tspan x="342.51" y="0">И: </tspan></text>
  <path class="cls-99" d="m481.35,130H63.47c-7.3,0-12.54-7.02-10.47-14.02l14.87-50.16c1.37-4.63,5.63-7.81,10.47-7.81h417.88c7.3,0,12.54,7.02,10.47,14.02l-14.87,50.16c-1.37,4.63-5.63,7.81-10.47,7.81Z"/>
</svg>